<?xml version="1.0" encoding="UTF-8"?>
<svg version="1.1" xmlns="http://www.w3.org/2000/svg" width="1280" height="1280">
<path d="M0 0 C1.78687529 -0.00417891 3.57374719 -0.01010863 5.36061159 -0.01761746 C10.26150628 -0.03315398 15.1620846 -0.02389503 20.06297397 -0.01050565 C25.39830549 -0.00034303 30.73358916 -0.01340477 36.06891388 -0.02347898 C45.41670237 -0.03791945 54.76439845 -0.03749135 64.1121912 -0.02729034 C78.01260718 -0.01216238 91.91294518 -0.01989433 105.81336063 -0.03212357 C129.19987822 -0.05197012 152.58635687 -0.05270342 175.97287846 -0.04181671 C177.04054489 -0.04131994 177.04054489 -0.04131994 178.12978034 -0.04081313 C179.19915993 -0.04031555 179.19915993 -0.04031555 180.29014315 -0.03980792 C202.01470854 -0.02971291 223.73925893 -0.02711069 245.46382618 -0.0318985 C246.91892909 -0.03220842 248.37403201 -0.03251704 249.82913492 -0.03282438 C255.6766651 -0.03406626 261.52419527 -0.03534093 267.37172543 -0.03666343 C283.71761903 -0.04033134 300.06351269 -0.04261383 316.40940666 -0.04380798 C317.15373952 -0.04386257 317.89807238 -0.04391715 318.66496078 -0.04397339 C342.38024744 -0.04561033 366.09552888 -0.04110376 389.8108139 -0.03240967 C390.96447972 -0.03198817 390.96447972 -0.03198817 392.14145193 -0.03155816 C404.63110728 -0.02697844 417.12076251 -0.02210056 429.61041774 -0.01719747 C479.14758279 0.00222869 528.6847046 0.00132517 578.22186947 -0.01811981 C590.70643293 -0.02300461 603.19099641 -0.02784883 615.67556 -0.03240967 C616.82865392 -0.03283236 616.82865392 -0.03283236 618.00504267 -0.03326359 C641.69663475 -0.04188869 665.38822322 -0.04554536 689.07981682 -0.04380798 C690.19547476 -0.04372648 690.19547476 -0.04372648 691.33367124 -0.04364333 C707.66082713 -0.0423934 723.98798264 -0.03985881 740.31513816 -0.03616597 C746.15710746 -0.03484942 751.99907678 -0.03359709 757.8410461 -0.03236313 C759.2943623 -0.03205357 760.74767849 -0.03173865 762.20099469 -0.03141834 C783.92023427 -0.02664463 805.63945696 -0.03070844 827.35869443 -0.04081313 C828.07055485 -0.04114431 828.78241526 -0.04147549 829.51584721 -0.04181671 C830.22639317 -0.04214744 830.93693913 -0.04247817 831.66901679 -0.04281892 C855.63623714 -0.05385267 879.60340779 -0.04978414 903.57062287 -0.02869374 C917.38992574 -0.0169347 931.2091255 -0.0162019 945.02842573 -0.03127843 C954.25484871 -0.04023513 963.48118886 -0.03468899 972.70759955 -0.01725936 C977.96729299 -0.00772844 983.22678128 -0.00452347 988.48646838 -0.01888329 C993.27296983 -0.03181816 998.05908441 -0.02629572 1002.84555774 -0.00616065 C1004.56471719 -0.00213775 1006.28390879 -0.00478142 1008.00304267 -0.0149844 C1023.68291368 -0.10142736 1036.89262712 3.20190095 1049.17621517 13.50336456 C1049.17621517 14.16336456 1049.17621517 14.82336456 1049.17621517 15.50336456 C1050.16621517 15.83336456 1051.15621517 16.16336456 1052.17621517 16.50336456 C1052.17621517 17.16336456 1052.17621517 17.82336456 1052.17621517 18.50336456 C1052.83621517 18.50336456 1053.49621517 18.50336456 1054.17621517 18.50336456 C1062.7040721 28.21266263 1067.2977031 39.96530208 1067.30501634 52.78432083 C1067.30679135 53.5119951 1067.30856636 54.23966938 1067.31039516 54.98939439 C1067.31514442 57.43960603 1067.3127599 59.88975904 1067.31043625 62.33997345 C1067.31238894 64.11721788 1067.31477769 65.89446187 1067.31756422 67.67170519 C1067.32397775 72.58307192 1067.32412476 77.49442233 1067.32328681 82.40579246 C1067.32345604 87.73868012 1067.32935917 93.07156187 1067.33452767 98.4044466 C1067.34386507 108.99400878 1067.34777763 119.58356678 1067.35004664 130.17313256 C1067.35300573 142.85222645 1067.36170138 155.53131477 1067.37046092 168.21040574 C1067.39131787 198.85860977 1067.40178031 229.50681455 1067.41059053 260.155024 C1067.4135243 270.30411827 1067.41689417 280.45321233 1067.42055774 290.60230637 C1067.42081603 291.31825272 1067.42107432 292.03419908 1067.42134044 292.77184078 C1067.42238666 295.66829356 1067.42343508 298.56474634 1067.42448626 301.46119912 C1067.44245123 351.00640114 1067.45783038 400.55160351 1067.46524529 450.09680833 C1067.46582926 453.98872112 1067.46642653 457.88063392 1067.46702291 461.77254671 C1067.46714103 462.54458003 1067.46725915 463.31661336 1067.46738085 464.11204164 C1067.46857824 471.93384769 1067.469787 479.75565373 1067.47101338 487.57745978 C1067.47125861 489.14575697 1067.47150247 490.71405416 1067.47174495 492.28235135 C1067.47953458 542.64973283 1067.50191763 593.017091 1067.53442138 643.38446229 C1067.55776729 679.57317383 1067.57931888 715.76188073 1067.58642769 751.95059967 C1067.58657471 752.69485505 1067.58672173 753.43911043 1067.58687321 754.205919 C1067.59005805 770.54435704 1067.59210893 786.88279504 1067.59310075 803.22123336 C1067.59351549 809.79521688 1067.59407039 816.36920039 1067.59466267 822.9431839 C1067.59475367 824.02240474 1067.59475367 824.02240474 1067.59484651 825.12342803 C1067.5968624 848.29822261 1067.61110007 871.47298968 1067.63160767 894.64777467 C1067.65276443 918.6412493 1067.65954393 942.63468186 1067.64973388 966.6281653 C1067.64451001 980.46277581 1067.65043827 994.2972771 1067.67226855 1008.13187193 C1067.68574638 1017.37004746 1067.68472635 1026.60814757 1067.67186659 1035.8463238 C1067.66494994 1041.11205987 1067.6643688 1046.37758671 1067.68142668 1051.64330435 C1067.69682763 1056.43654463 1067.69371241 1061.22940744 1067.6760164 1066.02263654 C1067.67287429 1067.74313937 1067.67639216 1069.46367106 1067.68750815 1071.18414085 C1067.77431454 1085.55939866 1065.53092205 1097.40574901 1057.17621517 1109.50336456 C1056.66187923 1110.254888 1056.1475433 1111.00641144 1055.61762142 1111.78070831 C1054.90412533 1112.63342316 1054.90412533 1112.63342316 1054.17621517 1113.50336456 C1053.51621517 1113.50336456 1052.85621517 1113.50336456 1052.17621517 1113.50336456 C1051.84621517 1114.49336456 1051.51621517 1115.48336456 1051.17621517 1116.50336456 C1050.51621517 1116.50336456 1049.85621517 1116.50336456 1049.17621517 1116.50336456 C1049.17621517 1117.16336456 1049.17621517 1117.82336456 1049.17621517 1118.50336456 C1036.67374354 1130.14130359 1022.05450597 1131.95328495 1005.72436714 1131.8836813 C1003.94129283 1131.88711692 1002.15822065 1131.89186514 1000.37515292 1131.89780226 C995.47086303 1131.9103164 990.566747 1131.90415984 985.66245631 1131.89496859 C980.32859696 1131.88826392 974.99476769 1131.89892234 969.66091472 1131.90736443 C960.31103284 1131.91974661 950.96120113 1131.92093707 941.61131382 1131.914814 C927.70767141 1131.90573303 913.80407551 1131.91374686 899.90043667 1131.92510524 C874.34779564 1131.94536125 848.79517886 1131.94683025 823.24253218 1131.94145461 C819.62242178 1131.94069889 816.00231137 1131.93997127 812.38220096 1131.93927264 C811.66315087 1131.93913355 810.94410078 1131.93899446 810.20326129 1131.93885115 C794.26582368 1131.93589847 778.32838887 1131.93891204 762.39095176 1131.94316893 C760.20952802 1131.94375109 758.02810428 1131.94431993 755.84668054 1131.94488456 C749.99896765 1131.94639952 744.15125477 1131.94792643 738.3035419 1131.94947757 C697.48230161 1131.96023405 656.6610639 1131.96493639 615.83982277 1131.95700741 C614.6856535 1131.95678495 614.6856535 1131.95678495 613.50816769 1131.956558 C604.9280713 1131.954899 596.34797492 1131.95314942 587.76787855 1131.95136499 C586.9932257 1131.95120396 586.21857284 1131.95104294 585.42044566 1131.95087703 C579.13380576 1131.94956931 579.13380576 1131.94956931 576.02217462 1131.94891584 C526.47170141 1131.93852434 476.92126371 1131.94629094 427.37079525 1131.9699173 C414.88534298 1131.97586072 402.39989069 1131.9817523 389.91443825 1131.98732662 C388.76126406 1131.98784228 388.76126406 1131.98784228 387.58479343 1131.98836835 C363.89009986 1131.99889617 340.19540926 1132.00448973 316.50071335 1132.00488377 C315.38483368 1132.00490294 315.38483368 1132.00490294 314.24641098 1132.0049225 C297.91558656 1132.0051508 281.5847624 1132.00414467 265.25393812 1132.00201345 C259.41050345 1132.00125868 253.56706877 1132.00058048 247.72363408 1131.9999333 C246.26994464 1131.9997706 244.8162552 1131.99960294 243.36256576 1131.99943028 C220.20186402 1131.99670937 197.04118385 1132.00526218 173.88048675 1132.01928438 C149.9049248 1132.0336935 125.92940994 1132.03323746 101.95384844 1132.01590966 C88.13032552 1132.00633078 74.30690773 1132.00781395 60.48339177 1132.02514435 C51.25277679 1132.03561029 42.02224214 1132.03156664 32.79163511 1132.01566432 C27.53031162 1132.00700786 22.26919459 1132.00466814 17.00788148 1132.01993363 C12.21869788 1132.03369828 7.42989776 1132.02895936 2.64073656 1132.00964845 C0.92171833 1132.00592186 -0.79733098 1132.00884701 -2.5163211 1132.01936153 C-17.54557126 1132.10493414 -29.41153604 1129.5155584 -41.82378483 1120.50336456 C-42.4193317 1120.08055206 -43.01487858 1119.65773956 -43.62847233 1119.22211456 C-53.49722466 1111.65436666 -60.38310956 1098.51711137 -62.82378483 1086.50336456 C-63.26033681 1080.75097894 -63.23533899 1075.01622974 -63.21413231 1069.25009823 C-63.21867024 1067.48869872 -63.22451865 1065.72730219 -63.23155382 1063.96591088 C-63.2470986 1059.12178486 -63.24402292 1054.27782216 -63.23792534 1049.43368163 C-63.23458491 1044.16496594 -63.2485885 1038.89629173 -63.26038855 1033.62759215 C-63.27867018 1024.39198654 -63.28581783 1015.15642411 -63.28569317 1005.92080116 C-63.28554494 992.18685385 -63.30248532 978.45296477 -63.32285554 964.71903447 C-63.35660139 941.61238138 -63.37616963 918.50574214 -63.38730145 895.39906883 C-63.39834664 872.50645831 -63.41470298 849.61386299 -63.43847561 826.72126198 C-63.43996137 825.28348792 -63.4414466 823.84571386 -63.4429313 822.4079398 C-63.44890651 816.6300352 -63.45491855 810.85213063 -63.46097772 805.07422612 C-63.47790139 788.92193453 -63.49381489 772.76964202 -63.50896835 756.61734867 C-63.50965878 755.88178813 -63.51034921 755.1462276 -63.51106056 754.38837735 C-63.53299315 730.94826653 -63.55053542 707.50815458 -63.56495476 684.06803799 C-63.56565677 682.92758489 -63.56565677 682.92758489 -63.56637296 681.76409234 C-63.57395592 669.41738541 -63.58127944 657.07067832 -63.58858728 644.72397122 C-63.61757679 595.77354793 -63.65890381 546.82315215 -63.71221256 497.87274933 C-63.71557673 494.78044695 -63.71893952 491.68814456 -63.72230235 488.59584218 C-63.72313393 487.83127741 -63.72396551 487.06671265 -63.72482229 486.27897926 C-63.73403005 477.81141823 -63.74320268 469.34385716 -63.75233269 460.87629604 C-63.7535622 459.73724997 -63.7535622 459.73724997 -63.75481654 458.57519287 C-63.7990497 417.56049387 -63.83368003 376.54578726 -63.86493987 335.53107649 C-63.86604461 334.08466804 -63.86714976 332.63825958 -63.86825531 331.19185113 C-63.86880177 330.47685686 -63.86934823 329.76186259 -63.86991125 329.02520183 C-63.87101412 327.5827349 -63.87211743 326.14026797 -63.8732212 324.69780104 C-63.87597095 321.10425921 -63.87871364 317.51071738 -63.88144104 313.91717554 C-63.89342424 298.17237539 -63.90669925 282.42757781 -63.92343831 266.68278193 C-63.92419166 265.97378838 -63.92494501 265.26479483 -63.92572119 264.53431663 C-63.92952138 260.96479993 -63.93334345 257.39528325 -63.93717333 253.82576658 C-63.96486289 228.0068587 -63.98597044 202.18796296 -63.99549697 176.36904084 C-64.00072661 162.71523787 -64.01144515 149.06146572 -64.03013145 135.40767439 C-64.04205225 126.28509582 -64.04662528 117.16253256 -64.04524051 108.03994636 C-64.04465214 102.84364403 -64.04719408 97.64739666 -64.05863271 92.45110571 C-64.0689856 87.71629985 -64.06993851 82.98158521 -64.06364936 78.24677306 C-64.06299569 76.55188318 -64.06564799 74.85698764 -64.07217305 73.16211019 C-64.10263013 64.77481155 -63.87298323 56.51781919 -62.91823119 48.17857367 C-62.83858979 47.47877642 -62.75894839 46.77897917 -62.67689362 46.05797594 C-61.98498465 40.61468952 -60.59254878 36.21026329 -57.82378483 31.50336456 C-57.32105045 30.62809113 -56.81831608 29.75281769 -56.30034733 28.85102081 C-54.23211392 25.33502402 -52.08653424 21.89748868 -49.82378483 18.50336456 C-49.16378483 18.50336456 -48.50378483 18.50336456 -47.82378483 18.50336456 C-47.49378483 17.51336456 -47.16378483 16.52336456 -46.82378483 15.50336456 C-44.35253169 13.24780683 -41.56902891 11.41058677 -38.82378483 9.50336456 C-38.2127692 9.05477081 -37.60175358 8.60617706 -36.97222233 8.14398956 C-25.65929727 0.34529229 -13.19563715 -0.07843186 0 0 Z " fill="#000000" transform="translate(136.82378482818604,74.49663543701172)"/>
</svg>
