<?xml version="1.0" encoding="UTF-8"?>
<svg version="1.1" xmlns="http://www.w3.org/2000/svg" width="256" height="256">
<path d="M0 0 C14.27687818 11.76205193 23.91660225 27.19876443 25.73583984 45.89208984 C25.86894655 49.06820531 25.89911695 52.22265745 25.87011719 55.40136719 C25.86616943 56.52857178 25.86222168 57.65577637 25.8581543 58.81713867 C25.71626207 67.16265771 24.60445497 74.8405837 22.40527344 82.87402344 C20.87592318 88.59753425 19.56843873 93.80604032 21.99511719 99.33886719 C23.52415006 102.99525015 23.55230301 104.84639517 22.35058594 108.60449219 C19.03523458 116.44847241 14.54560437 122.93825428 7.43261719 127.77636719 C6.77261719 127.77636719 6.11261719 127.77636719 5.43261719 127.77636719 C5.11836933 129.46354257 4.80631564 131.15112668 4.49511719 132.83886719 C4.32109375 133.77859375 4.14707031 134.71832031 3.96777344 135.68652344 C3.79117188 136.70617187 3.61457031 137.72582031 3.43261719 138.77636719 C3.243125 139.85015625 3.05363281 140.92394531 2.85839844 142.03027344 C2.24389717 147.43675708 2.45733128 152.78667845 2.64746094 158.21777344 C2.76455085 165.16865639 1.89134471 171.45081555 -2.32910156 177.15917969 C-2.96460938 177.73410156 -3.60011719 178.30902344 -4.25488281 178.90136719 C-4.96386719 179.55878906 -5.67285156 180.21621094 -6.40332031 180.89355469 C-9.04328462 183.19041894 -11.70885135 185.45645006 -14.37597656 187.72167969 C-16.58529449 189.79316138 -18.55723812 192.0052439 -20.5402832 194.29174805 C-26.7326762 201.40065402 -32.995098 206.42390445 -42.56738281 207.77636719 C-45.96403597 207.96728771 -49.35340695 208.00719044 -52.75488281 208.02636719 C-54.09776367 208.05730469 -54.09776367 208.05730469 -55.46777344 208.08886719 C-66.43978857 208.15224345 -74.59334395 205.32529574 -82.56738281 197.77636719 C-85.16437831 195.08810914 -87.68311084 192.33062185 -90.18041992 189.54980469 C-93.47815886 185.88812251 -96.86152436 182.57961206 -100.75097656 179.53417969 C-105.56585883 174.8746162 -107.82101662 171.72955111 -108.16894531 165.00292969 C-108.19625009 162.80256439 -108.20320707 160.60187527 -108.19238281 158.40136719 C-108.33306161 150.45189877 -108.52793528 142.6331224 -109.81738281 134.77636719 C-109.91486816 134.08365723 -110.01235352 133.39094727 -110.11279297 132.67724609 C-110.44158353 130.55386271 -110.44158353 130.55386271 -111.56738281 127.77636719 C-113.93490921 126.48455388 -113.93490921 126.48455388 -116.56738281 125.77636719 C-122.06956961 120.91532503 -127.79900317 113.75482698 -128.94238281 106.34667969 C-129.09013544 100.71361079 -129.09013544 100.71361079 -127.52880859 97.91430664 C-125.20062435 92.73708231 -127.64989266 86.11321911 -129.07910156 80.85595703 C-134.59025741 60.04743507 -133.62122718 36.72673804 -122.67675781 17.87792969 C-110.03383965 -0.71184258 -90.3277829 -11.80159973 -68.56738281 -16.22363281 C-44.88372692 -20.23370637 -19.14412143 -14.9455353 0 0 Z M-102.56738281 5.77636719 C-102.23996094 6.47117187 -101.91253906 7.16597656 -101.57519531 7.88183594 C-100.44075451 11.14005546 -100.36682226 13.65086221 -100.44238281 17.08886719 C-100.46042969 18.1575 -100.47847656 19.22613281 -100.49707031 20.32714844 C-100.52027344 21.13539062 -100.54347656 21.94363281 -100.56738281 22.77636719 C-99.71273437 23.1746875 -98.85808594 23.57300781 -97.97753906 23.98339844 C-96.8728125 24.51320312 -95.76808594 25.04300781 -94.62988281 25.58886719 C-93.52773437 26.1109375 -92.42558594 26.63300781 -91.29003906 27.17089844 C-88.56738281 28.77636719 -88.56738281 28.77636719 -87.56738281 31.77636719 C-88.16550781 31.44636719 -88.76363281 31.11636719 -89.37988281 30.77636719 C-91.62124752 29.56848731 -91.62124752 29.56848731 -94.56738281 29.77636719 C-95.40535012 34.43174112 -95.58355201 38.14715194 -94.56738281 42.77636719 C-96.32676888 41.01698112 -96.8140016 39.13696166 -97.56738281 36.77636719 C-97.51090147 35.42081503 -97.42587626 34.06625063 -97.31738281 32.71386719 C-97.39988281 31.41449219 -97.48238281 30.11511719 -97.56738281 28.77636719 C-99.02144531 27.91011719 -99.02144531 27.91011719 -100.50488281 27.02636719 C-103.56738281 24.77636719 -103.56738281 24.77636719 -104.04785156 21.94042969 C-104.14275748 19.78067871 -104.18480187 17.61783173 -104.16894531 15.45605469 C-104.36617187 14.12960938 -104.36617187 14.12960938 -104.56738281 12.77636719 C-106.48980481 11.33962651 -106.48980481 11.33962651 -108.56738281 10.77636719 C-121.76782102 25.61848426 -126.52434778 42.24027751 -125.56738281 61.77636719 C-124.84366057 71.13323314 -124.84366057 71.13323314 -121.56738281 79.77636719 C-121.3134375 79.07511719 -121.05949219 78.37386719 -120.79785156 77.65136719 C-120.45367187 76.70261719 -120.10949219 75.75386719 -119.75488281 74.77636719 C-119.39265625 73.75929688 -119.03042969 72.74222656 -118.65722656 71.69433594 C-117.56738281 68.77636719 -117.56738281 68.77636719 -116.63378906 66.82714844 C-113.39963397 59.94102875 -114.32404986 52.20252826 -114.56738281 44.77636719 C-110.68311294 55.64307457 -110.72287 63.1649326 -114.71777344 73.95117188 C-116.31349987 78.43773981 -116.90780255 82.41101593 -117.06738281 87.21386719 C-117.25541389 92.77958713 -118.30729232 95.6198068 -121.53222656 100.05761719 C-122.84519218 101.93397191 -122.84519218 101.93397191 -122.75488281 105.21386719 C-120.74921067 111.23088361 -117.61987695 116.78718699 -112.25488281 120.40136719 C-108.22446185 121.90423602 -106.22072071 121.82581856 -102.09863281 121.15527344 C-95.88850085 120.22567035 -89.8470362 119.81651313 -84.00488281 122.27636719 C-80.78488321 125.57893088 -79.88726213 128.37676947 -78.56738281 132.77636719 C-79.33050781 131.95136719 -80.09363281 131.12636719 -80.87988281 130.27636719 C-83.32172423 127.43581522 -83.32172423 127.43581522 -86.56738281 127.77636719 C-86.07238281 128.74574219 -85.57738281 129.71511719 -85.06738281 130.71386719 C-83.56738281 133.77636719 -83.56738281 133.77636719 -83.56738281 134.77636719 C-83.24358155 136.1120474 -82.9108073 137.44559729 -82.56738281 138.77636719 C-81.96410156 138.81375 -81.36082031 138.85113281 -80.73925781 138.88964844 C-79.54042969 138.98826172 -79.54042969 138.98826172 -78.31738281 139.08886719 C-77.13402344 139.17587891 -77.13402344 139.17587891 -75.92675781 139.26464844 C-73.56738281 139.77636719 -73.56738281 139.77636719 -71.58691406 141.33105469 C-68.9708158 143.20331069 -67.65059298 142.99216336 -64.50488281 142.58886719 C-63.64765625 142.4921875 -62.79042969 142.39550781 -61.90722656 142.29589844 C-59.31312452 141.86769868 -59.31312452 141.86769868 -56.56738281 139.77636719 C-55.90738281 139.77636719 -55.24738281 139.77636719 -54.56738281 139.77636719 C-54.89738281 140.76636719 -55.22738281 141.75636719 -55.56738281 142.77636719 C-54.90738281 143.10636719 -54.24738281 143.43636719 -53.56738281 143.77636719 C-51.4505444 142.88473141 -51.4505444 142.88473141 -49.56738281 141.77636719 C-49.56738281 141.11636719 -49.56738281 140.45636719 -49.56738281 139.77636719 C-48.57738281 139.44636719 -47.58738281 139.11636719 -46.56738281 138.77636719 C-46.23738281 138.11636719 -45.90738281 137.45636719 -45.56738281 136.77636719 C-47.54738281 137.10636719 -49.52738281 137.43636719 -51.56738281 137.77636719 C-50.90738281 136.45636719 -50.24738281 135.13636719 -49.56738281 133.77636719 C-50.55738281 133.77636719 -51.54738281 133.77636719 -52.56738281 133.77636719 C-47.61738281 132.78636719 -47.61738281 132.78636719 -42.56738281 131.77636719 C-42.23738281 130.78636719 -41.90738281 129.79636719 -41.56738281 128.77636719 C-41.23738281 129.10636719 -40.90738281 129.43636719 -40.56738281 129.77636719 C-38.26778671 131.12973151 -38.26778671 131.12973151 -35.56738281 131.77636719 C-33.20255754 130.64907499 -33.20255754 130.64907499 -31.56738281 128.77636719 C-31.56738281 128.11636719 -31.56738281 127.45636719 -31.56738281 126.77636719 C-30.24738281 127.10636719 -28.92738281 127.43636719 -27.56738281 127.77636719 C-27.56738281 126.78636719 -27.56738281 125.79636719 -27.56738281 124.77636719 C-26.57738281 124.11636719 -25.58738281 123.45636719 -24.56738281 122.77636719 C-24.56738281 121.78636719 -24.56738281 120.79636719 -24.56738281 119.77636719 C-23.57738281 119.44636719 -22.58738281 119.11636719 -21.56738281 118.77636719 C-20.65900518 116.29897365 -20.56738281 114.44057234 -20.56738281 111.77636719 C-17.31593692 109.26388627 -14.56772297 107.63358294 -10.56738281 106.77636719 C-9.90738281 106.11636719 -9.24738281 105.45636719 -8.56738281 104.77636719 C-12.85738281 104.11636719 -17.14738281 103.45636719 -21.56738281 102.77636719 C-21.23738281 103.76636719 -20.90738281 104.75636719 -20.56738281 105.77636719 C-19.90738281 106.10636719 -19.24738281 106.43636719 -18.56738281 106.77636719 C-20.90033057 106.81878442 -23.23440848 106.81729656 -25.56738281 106.77636719 C-25.89738281 106.44636719 -26.22738281 106.11636719 -26.56738281 105.77636719 C-27.81258436 105.18285991 -29.06355661 104.60143033 -30.31738281 104.02636719 C-34.12434485 102.17064376 -36.65056034 99.86476745 -39.56738281 96.77636719 C-40.22738281 96.77636719 -40.88738281 96.77636719 -41.56738281 96.77636719 C-42.07981394 93.18934928 -42.57885455 89.63870636 -42.87988281 86.02636719 C-43.68919785 82.2005143 -44.48729959 81.89392441 -47.56738281 79.77636719 C-48.31738281 77.08886719 -48.31738281 77.08886719 -48.56738281 74.77636719 C-47.90738281 74.77636719 -47.24738281 74.77636719 -46.56738281 74.77636719 C-45.90738281 75.43636719 -45.24738281 76.09636719 -44.56738281 76.77636719 C-37.64741083 77.92969585 -33.10822521 74.68635835 -27.56738281 70.77636719 C-26.90738281 70.11636719 -26.24738281 69.45636719 -25.56738281 68.77636719 C-23.71337877 67.85771654 -21.83497748 66.98762995 -19.94238281 66.15136719 C-18.93949219 65.70535156 -17.93660156 65.25933594 -16.90332031 64.79980469 C-15.74703125 64.29320313 -15.74703125 64.29320313 -14.56738281 63.77636719 C-15.55738281 65.75636719 -15.55738281 65.75636719 -16.56738281 67.77636719 C-15.48070312 67.84984375 -15.48070312 67.84984375 -14.37207031 67.92480469 C-9.15279414 68.32842871 -4.46924623 68.78912526 0.43261719 70.77636719 C0.43261719 71.43636719 0.43261719 72.09636719 0.43261719 72.77636719 C2.08261719 73.10636719 3.73261719 73.43636719 5.43261719 73.77636719 C5.43261719 72.45636719 5.43261719 71.13636719 5.43261719 69.77636719 C5.43261719 69.44636719 5.43261719 69.11636719 5.43261719 68.77636719 C5.10261719 67.80699219 4.77261719 66.83761719 4.43261719 65.83886719 C3.21305769 62.10396623 3.52299645 59.94396878 4.24511719 56.15136719 C4.47134766 54.92546875 4.47134766 54.92546875 4.70214844 53.67480469 C5.65219384 49.90510582 7.02282629 46.39933666 8.43261719 42.77636719 C8.41690674 43.36651611 8.40119629 43.95666504 8.38500977 44.56469727 C8.3226378 47.23932304 8.28362061 49.91379583 8.24511719 52.58886719 C8.21998047 53.51763672 8.19484375 54.44640625 8.16894531 55.40332031 C8.15927734 56.29599609 8.14960938 57.18867187 8.13964844 58.10839844 C8.12393799 58.93057861 8.10822754 59.75275879 8.09204102 60.59985352 C8.5131757 63.29119095 9.25346528 64.183075 11.43261719 65.77636719 C14.02379032 65.77480494 14.02379032 65.77480494 16.43261719 64.77636719 C20.82657153 58.18543568 18.72072541 47.09757243 17.30761719 39.58886719 C13.67312212 24.48779613 4.81155075 12.020025 -7.56738281 2.77636719 C-10.2672929 1.94339764 -10.2672929 1.94339764 -12.56738281 1.77636719 C-16.0889553 6.28838193 -17.27021041 9.05334245 -16.56738281 14.77636719 C-16.05175781 15.93136719 -15.53613281 17.08636719 -15.00488281 18.27636719 C-13.34279351 22.32319331 -13.62274381 24.56842981 -14.56738281 28.77636719 C-15.55738281 25.80636719 -16.54738281 22.83636719 -17.56738281 19.77636719 C-21.40887433 19.77636719 -22.65737792 20.23943984 -25.56738281 22.77636719 C-26.32492528 25.38095141 -26.75582079 27.90847932 -27.11035156 30.59667969 C-27.26117188 31.31597656 -27.41199219 32.03527344 -27.56738281 32.77636719 C-28.55738281 33.27136719 -28.55738281 33.27136719 -29.56738281 33.77636719 C-29.23738281 30.14636719 -28.90738281 26.51636719 -28.56738281 22.77636719 C-30.54738281 23.10636719 -32.52738281 23.43636719 -34.56738281 23.77636719 C-30.85463616 19.21981448 -25.77730879 17.20236325 -20.56738281 14.77636719 C-20.61378906 14.21949219 -20.66019531 13.66261719 -20.70800781 13.08886719 C-21.00415104 6.82755322 -19.71236623 3.18180743 -16.56738281 -2.22363281 C-45.86322474 -14.72253333 -76.25409432 -12.71405175 -102.56738281 5.77636719 Z M16.43261719 64.77636719 C16.76261719 65.76636719 17.09261719 66.75636719 17.43261719 67.77636719 C17.76261719 66.78636719 18.09261719 65.79636719 18.43261719 64.77636719 C17.77261719 64.77636719 17.11261719 64.77636719 16.43261719 64.77636719 Z M14.43261719 66.77636719 C14.43261719 67.43636719 14.43261719 68.09636719 14.43261719 68.77636719 C13.77261719 68.77636719 13.11261719 68.77636719 12.43261719 68.77636719 C12.43261719 69.43636719 12.43261719 70.09636719 12.43261719 70.77636719 C13.75261719 70.11636719 15.07261719 69.45636719 16.43261719 68.77636719 C15.77261719 68.11636719 15.11261719 67.45636719 14.43261719 66.77636719 Z M14.43261719 70.77636719 C13.09957021 73.66823505 13.09957021 73.66823505 14.37011719 75.96386719 C14.72074219 76.56199219 15.07136719 77.16011719 15.43261719 77.77636719 C16.11220322 75.37917287 16.11220322 75.37917287 16.43261719 72.77636719 C15.77261719 72.11636719 15.11261719 71.45636719 14.43261719 70.77636719 Z M6.43261719 72.77636719 C4.67199555 76.10198584 4.32477491 77.36810713 5.30761719 81.08886719 C5.67886719 81.97574219 6.05011719 82.86261719 6.43261719 83.77636719 C7.42261719 83.77636719 8.41261719 83.77636719 9.43261719 83.77636719 C9.28824219 83.26074219 9.14386719 82.74511719 8.99511719 82.21386719 C8.27451818 79.09127147 7.85995279 75.95086027 7.43261719 72.77636719 C7.10261719 72.77636719 6.77261719 72.77636719 6.43261719 72.77636719 Z M3.43261719 88.77636719 C3.39197887 90.44253834 3.38989619 92.11024814 3.43261719 93.77636719 C5.41261719 93.44636719 7.39261719 93.11636719 9.43261719 92.77636719 C9.43261719 92.11636719 9.43261719 91.45636719 9.43261719 90.77636719 C8.77261719 90.44636719 8.11261719 90.11636719 7.43261719 89.77636719 C8.09261719 89.11636719 8.75261719 88.45636719 9.43261719 87.77636719 C6.14331314 87.40951021 6.14331314 87.40951021 3.43261719 88.77636719 Z M2.43261719 93.77636719 C2.70879252 95.7171158 2.70879252 95.7171158 3.43261719 97.77636719 C4.91761719 98.76636719 4.91761719 98.76636719 6.43261719 99.77636719 C7.42261719 99.11636719 8.41261719 98.45636719 9.43261719 97.77636719 C9.10261719 96.78636719 8.77261719 95.79636719 8.43261719 94.77636719 C5.46261719 94.28136719 5.46261719 94.28136719 2.43261719 93.77636719 Z M9.43261719 93.77636719 C10.43261719 95.77636719 10.43261719 95.77636719 10.43261719 95.77636719 Z M11.43261719 97.77636719 C8.76116182 98.5779851 8.76116182 98.5779851 6.43261719 99.77636719 C6.43261719 100.76636719 6.43261719 101.75636719 6.43261719 102.77636719 C5.77261719 102.77636719 5.11261719 102.77636719 4.43261719 102.77636719 C4.43261719 103.43636719 4.43261719 104.09636719 4.43261719 104.77636719 C6.41261719 104.44636719 8.39261719 104.11636719 10.43261719 103.77636719 C10.43261719 102.78636719 10.43261719 101.79636719 10.43261719 100.77636719 C11.75261719 100.44636719 13.07261719 100.11636719 14.43261719 99.77636719 C13.44261719 99.11636719 12.45261719 98.45636719 11.43261719 97.77636719 Z M0.43261719 98.77636719 C-0.71207031 99.70449219 -0.71207031 99.70449219 -1.87988281 100.65136719 C-4.56738281 102.77636719 -4.56738281 102.77636719 -7.56738281 104.77636719 C-7.89738281 105.76636719 -8.22738281 106.75636719 -8.56738281 107.77636719 C-7.24738281 107.44636719 -5.92738281 107.11636719 -4.56738281 106.77636719 C-4.56738281 106.11636719 -4.56738281 105.45636719 -4.56738281 104.77636719 C-3.24738281 105.10636719 -1.92738281 105.43636719 -0.56738281 105.77636719 C-0.56738281 107.42636719 -0.56738281 109.07636719 -0.56738281 110.77636719 C-1.88738281 109.78636719 -3.20738281 108.79636719 -4.56738281 107.77636719 C-5.55738281 108.76636719 -6.54738281 109.75636719 -7.56738281 110.77636719 C-6.57738281 111.76636719 -5.58738281 112.75636719 -4.56738281 113.77636719 C-5.22738281 113.77636719 -5.88738281 113.77636719 -6.56738281 113.77636719 C-6.56738281 114.43636719 -6.56738281 115.09636719 -6.56738281 115.77636719 C-7.55738281 116.10636719 -8.54738281 116.43636719 -9.56738281 116.77636719 C-7.07673393 117.46344274 -5.1885199 117.77636719 -2.56738281 117.77636719 C-2.56738281 117.11636719 -2.56738281 116.45636719 -2.56738281 115.77636719 C0.89761719 115.28136719 0.89761719 115.28136719 4.43261719 114.77636719 C3.96461007 110.72030554 3.55308511 107.31048039 1.43261719 103.77636719 C2.09261719 103.11636719 2.75261719 102.45636719 3.43261719 101.77636719 C2.44261719 100.78636719 1.45261719 99.79636719 0.43261719 98.77636719 Z M-26.56738281 101.77636719 C-24.58738281 102.76636719 -24.58738281 102.76636719 -22.56738281 103.77636719 C-22.56738281 103.11636719 -22.56738281 102.45636719 -22.56738281 101.77636719 C-23.88738281 101.77636719 -25.20738281 101.77636719 -26.56738281 101.77636719 Z M7.43261719 105.77636719 C7.43261719 106.10636719 7.43261719 106.43636719 7.43261719 106.77636719 C9.08261719 106.77636719 10.73261719 106.77636719 12.43261719 106.77636719 C12.43261719 106.44636719 12.43261719 106.11636719 12.43261719 105.77636719 C10.78261719 105.77636719 9.13261719 105.77636719 7.43261719 105.77636719 Z M4.43261719 106.77636719 C4.43261719 107.43636719 4.43261719 108.09636719 4.43261719 108.77636719 C5.09261719 108.44636719 5.75261719 108.11636719 6.43261719 107.77636719 C5.77261719 107.44636719 5.11261719 107.11636719 4.43261719 106.77636719 Z M-15.12988281 110.27636719 C-15.60425781 110.77136719 -16.07863281 111.26636719 -16.56738281 111.77636719 C-15.57738281 112.27136719 -15.57738281 112.27136719 -14.56738281 112.77636719 C-14.56738281 113.43636719 -14.56738281 114.09636719 -14.56738281 114.77636719 C-13.24738281 114.44636719 -11.92738281 114.11636719 -10.56738281 113.77636719 C-10.23738281 114.43636719 -9.90738281 115.09636719 -9.56738281 115.77636719 C-9.23738281 114.78636719 -8.90738281 113.79636719 -8.56738281 112.77636719 C-9.55738281 112.44636719 -10.54738281 112.11636719 -11.56738281 111.77636719 C-11.89738281 110.78636719 -12.22738281 109.79636719 -12.56738281 108.77636719 C-13.80814583 108.66094522 -13.80814583 108.66094522 -15.12988281 110.27636719 Z M-10.56738281 108.77636719 C-9.56738281 110.77636719 -9.56738281 110.77636719 -9.56738281 110.77636719 Z M8.43261719 108.77636719 C8.43261719 109.43636719 8.43261719 110.09636719 8.43261719 110.77636719 C9.42261719 110.44636719 10.41261719 110.11636719 11.43261719 109.77636719 C10.44261719 109.44636719 9.45261719 109.11636719 8.43261719 108.77636719 Z M4.43261719 109.77636719 C4.43261719 110.43636719 4.43261719 111.09636719 4.43261719 111.77636719 C5.09261719 111.44636719 5.75261719 111.11636719 6.43261719 110.77636719 C5.77261719 110.44636719 5.11261719 110.11636719 4.43261719 109.77636719 Z M-18.56738281 111.77636719 C-18.89738281 112.43636719 -19.22738281 113.09636719 -19.56738281 113.77636719 C-18.57738281 113.44636719 -17.58738281 113.11636719 -16.56738281 112.77636719 C-17.22738281 112.44636719 -17.88738281 112.11636719 -18.56738281 111.77636719 Z M5.43261719 112.77636719 C5.10261719 113.76636719 4.77261719 114.75636719 4.43261719 115.77636719 C5.75261719 115.11636719 7.07261719 114.45636719 8.43261719 113.77636719 C7.44261719 113.44636719 6.45261719 113.11636719 5.43261719 112.77636719 Z M-20.56738281 115.77636719 C-19.56738281 117.77636719 -19.56738281 117.77636719 -19.56738281 117.77636719 Z M-11.56738281 116.77636719 C-10.56738281 118.77636719 -10.56738281 118.77636719 -10.56738281 118.77636719 Z M-17.56738281 117.77636719 C-16.08238281 118.76636719 -16.08238281 118.76636719 -14.56738281 119.77636719 C-14.56738281 119.11636719 -14.56738281 118.45636719 -14.56738281 117.77636719 C-15.55738281 117.77636719 -16.54738281 117.77636719 -17.56738281 117.77636719 Z M-20.56738281 118.77636719 C-19.56738281 120.77636719 -19.56738281 120.77636719 -19.56738281 120.77636719 Z M-9.56738281 118.77636719 C-5.56738281 119.77636719 -5.56738281 119.77636719 -5.56738281 119.77636719 Z M0.43261719 119.77636719 C0.10261719 120.43636719 -0.22738281 121.09636719 -0.56738281 121.77636719 C0.09261719 121.77636719 0.75261719 121.77636719 1.43261719 121.77636719 C1.10261719 121.11636719 0.77261719 120.45636719 0.43261719 119.77636719 Z M-21.56738281 126.77636719 C-23.05238281 128.75636719 -23.05238281 128.75636719 -24.56738281 130.77636719 C-23.24738281 130.11636719 -21.92738281 129.45636719 -20.56738281 128.77636719 C-20.89738281 128.11636719 -21.22738281 127.45636719 -21.56738281 126.77636719 Z M-31.56738281 128.77636719 C-30.90738281 129.43636719 -30.24738281 130.09636719 -29.56738281 130.77636719 C-29.56738281 130.11636719 -29.56738281 129.45636719 -29.56738281 128.77636719 C-30.22738281 128.77636719 -30.88738281 128.77636719 -31.56738281 128.77636719 Z M-25.56738281 130.77636719 C-26.55738281 132.26136719 -26.55738281 132.26136719 -27.56738281 133.77636719 C-26.57738281 133.44636719 -25.58738281 133.11636719 -24.56738281 132.77636719 C-24.89738281 132.11636719 -25.22738281 131.45636719 -25.56738281 130.77636719 Z M-98.56738281 132.77636719 C-97.56738281 134.77636719 -97.56738281 134.77636719 -97.56738281 134.77636719 Z M-44.56738281 133.77636719 C-42.09238281 134.27136719 -42.09238281 134.27136719 -39.56738281 134.77636719 C-39.56738281 133.78636719 -39.56738281 132.79636719 -39.56738281 131.77636719 C-41.40784669 131.77636719 -42.96367875 132.94864896 -44.56738281 133.77636719 Z M-37.56738281 132.77636719 C-37.23738281 134.09636719 -36.90738281 135.41636719 -36.56738281 136.77636719 C-36.23738281 135.45636719 -35.90738281 134.13636719 -35.56738281 132.77636719 C-36.22738281 132.77636719 -36.88738281 132.77636719 -37.56738281 132.77636719 Z M-47.56738281 133.77636719 C-45.51504597 136.02416469 -44.56071021 136.77859139 -41.56738281 137.77636719 C-41.56738281 136.78636719 -41.56738281 135.79636719 -41.56738281 134.77636719 C-44.53738281 134.28136719 -44.53738281 134.28136719 -47.56738281 133.77636719 Z M-97.56738281 134.77636719 C-96.56738281 137.77636719 -96.56738281 137.77636719 -96.56738281 137.77636719 Z M-9.56738281 134.77636719 C-9.56738281 137.77636719 -9.56738281 137.77636719 -9.56738281 137.77636719 Z M-102.56738281 136.77636719 C-102.23738281 143.70636719 -101.90738281 150.63636719 -101.56738281 157.77636719 C-100.90738281 157.44636719 -100.24738281 157.11636719 -99.56738281 156.77636719 C-98.90738281 157.10636719 -98.24738281 157.43636719 -97.56738281 157.77636719 C-98.88738281 158.10636719 -100.20738281 158.43636719 -101.56738281 158.77636719 C-101.60863281 160.05511719 -101.64988281 161.33386719 -101.69238281 162.65136719 C-101.71558594 163.37066406 -101.73878906 164.08996094 -101.76269531 164.83105469 C-101.7506997 167.01500364 -101.7506997 167.01500364 -99.56738281 168.77636719 C-98.57738281 168.44636719 -97.58738281 168.11636719 -96.56738281 167.77636719 C-97.55738281 167.44636719 -98.54738281 167.11636719 -99.56738281 166.77636719 C-97.91738281 166.11636719 -96.26738281 165.45636719 -94.56738281 164.77636719 C-95.55738281 164.44636719 -96.54738281 164.11636719 -97.56738281 163.77636719 C-96.24738281 163.77636719 -94.92738281 163.77636719 -93.56738281 163.77636719 C-92.22574203 163.47822479 -90.88887108 163.15393526 -89.56738281 162.77636719 C-90.04280518 162.21916992 -90.51822754 161.66197266 -91.00805664 161.08789062 C-92.74497832 158.51310207 -93.12504261 156.84988112 -93.51660156 153.79199219 C-93.64228516 152.85742188 -93.76796875 151.92285156 -93.89746094 150.95996094 C-94.01541016 149.991875 -94.13335937 149.02378906 -94.25488281 148.02636719 C-94.38443359 147.0428125 -94.51398438 146.05925781 -94.64746094 145.04589844 C-94.96490679 142.62390413 -95.27112696 140.2010292 -95.56738281 137.77636719 C-96.55738281 138.27136719 -96.55738281 138.27136719 -97.56738281 138.77636719 C-97.56738281 141.74636719 -97.56738281 144.71636719 -97.56738281 147.77636719 C-98.88738281 144.14636719 -100.20738281 140.51636719 -101.56738281 136.77636719 C-101.89738281 136.77636719 -102.22738281 136.77636719 -102.56738281 136.77636719 Z M-44.56738281 137.77636719 C-45.22738281 139.09636719 -45.88738281 140.41636719 -46.56738281 141.77636719 C-44.91738281 141.44636719 -43.26738281 141.11636719 -41.56738281 140.77636719 C-42.55738281 139.78636719 -43.54738281 138.79636719 -44.56738281 137.77636719 Z M-31.56738281 137.77636719 C-31.89738281 138.43636719 -32.22738281 139.09636719 -32.56738281 139.77636719 C-31.90738281 139.77636719 -31.24738281 139.77636719 -30.56738281 139.77636719 C-30.89738281 139.11636719 -31.22738281 138.45636719 -31.56738281 137.77636719 Z M-5.56738281 137.77636719 C-5.89738281 139.75636719 -6.22738281 141.73636719 -6.56738281 143.77636719 C-5.90738281 143.11636719 -5.24738281 142.45636719 -4.56738281 141.77636719 C-4.88590052 139.66815922 -4.88590052 139.66815922 -5.56738281 137.77636719 Z M-80.56738281 142.77636719 C-80.89738281 144.42636719 -81.22738281 146.07636719 -81.56738281 147.77636719 C-80.90738281 147.77636719 -80.24738281 147.77636719 -79.56738281 147.77636719 C-79.56738281 146.12636719 -79.56738281 144.47636719 -79.56738281 142.77636719 C-79.89738281 142.77636719 -80.22738281 142.77636719 -80.56738281 142.77636719 Z M-74.56738281 144.77636719 C-75.86371902 145.84281834 -75.86371902 145.84281834 -75.62988281 148.33886719 C-75.60925781 149.14324219 -75.58863281 149.94761719 -75.56738281 150.77636719 C-74.57738281 151.27136719 -74.57738281 151.27136719 -73.56738281 151.77636719 C-73.56738281 149.46636719 -73.56738281 147.15636719 -73.56738281 144.77636719 C-73.89738281 144.77636719 -74.22738281 144.77636719 -74.56738281 144.77636719 Z M-67.56738281 145.77636719 C-67.89738281 147.75636719 -68.22738281 149.73636719 -68.56738281 151.77636719 C-67.57738281 151.44636719 -66.58738281 151.11636719 -65.56738281 150.77636719 C-65.89738281 149.12636719 -66.22738281 147.47636719 -66.56738281 145.77636719 C-66.89738281 145.77636719 -67.22738281 145.77636719 -67.56738281 145.77636719 Z M-58.56738281 145.77636719 C-60.19245477 148.60948338 -60.19245477 148.60948338 -61.56738281 151.77636719 C-61.23738281 152.76636719 -60.90738281 153.75636719 -60.56738281 154.77636719 C-59.90738281 154.11636719 -59.24738281 153.45636719 -58.56738281 152.77636719 C-58.56738281 152.11636719 -58.56738281 151.45636719 -58.56738281 150.77636719 C-57.90738281 150.11636719 -57.24738281 149.45636719 -56.56738281 148.77636719 C-57.22738281 147.78636719 -57.88738281 146.79636719 -58.56738281 145.77636719 Z M-49.56738281 145.77636719 C-49.89738281 147.09636719 -50.22738281 148.41636719 -50.56738281 149.77636719 C-49.57738281 149.11636719 -48.58738281 148.45636719 -47.56738281 147.77636719 C-47.56738281 147.11636719 -47.56738281 146.45636719 -47.56738281 145.77636719 C-48.22738281 145.77636719 -48.88738281 145.77636719 -49.56738281 145.77636719 Z M-41.56738281 147.77636719 C-40.56738281 149.77636719 -40.56738281 149.77636719 -40.56738281 149.77636719 Z M-12.56738281 147.77636719 C-12.23738281 148.76636719 -11.90738281 149.75636719 -11.56738281 150.77636719 C-11.23738281 149.78636719 -10.90738281 148.79636719 -10.56738281 147.77636719 C-11.22738281 147.77636719 -11.88738281 147.77636719 -12.56738281 147.77636719 Z M-51.56738281 150.77636719 C-50.56738281 153.77636719 -50.56738281 153.77636719 -50.56738281 153.77636719 Z M-13.56738281 154.77636719 C-12.56738281 157.77636719 -12.56738281 157.77636719 -12.56738281 157.77636719 Z M-14.56738281 157.77636719 C-13.56738281 159.77636719 -13.56738281 159.77636719 -13.56738281 159.77636719 Z M-10.56738281 158.77636719 C-9.56738281 160.77636719 -9.56738281 160.77636719 -9.56738281 160.77636719 Z M-89.56738281 162.77636719 C-88.56738281 164.77636719 -88.56738281 164.77636719 -88.56738281 164.77636719 Z M-81.56738281 163.77636719 C-81.23738281 164.43636719 -80.90738281 165.09636719 -80.56738281 165.77636719 C-79.90738281 165.11636719 -79.24738281 164.45636719 -78.56738281 163.77636719 C-79.55738281 163.77636719 -80.54738281 163.77636719 -81.56738281 163.77636719 Z M-27.56738281 163.77636719 C-27.23738281 164.43636719 -26.90738281 165.09636719 -26.56738281 165.77636719 C-26.23738281 165.11636719 -25.90738281 164.45636719 -25.56738281 163.77636719 C-26.22738281 163.77636719 -26.88738281 163.77636719 -27.56738281 163.77636719 Z M-20.56738281 165.77636719 C-20.89738281 167.09636719 -21.22738281 168.41636719 -21.56738281 169.77636719 C-20.90738281 168.45636719 -20.24738281 167.13636719 -19.56738281 165.77636719 C-19.89738281 165.77636719 -20.22738281 165.77636719 -20.56738281 165.77636719 Z M-33.56738281 166.77636719 C-33.89738281 167.43636719 -34.22738281 168.09636719 -34.56738281 168.77636719 C-33.57738281 168.77636719 -32.58738281 168.77636719 -31.56738281 168.77636719 C-31.56738281 168.11636719 -31.56738281 167.45636719 -31.56738281 166.77636719 C-32.22738281 166.77636719 -32.88738281 166.77636719 -33.56738281 166.77636719 Z M-85.56738281 168.77636719 C-84.56738281 171.77636719 -84.56738281 171.77636719 -84.56738281 171.77636719 Z M-68.56738281 169.77636719 C-64.56738281 170.77636719 -64.56738281 170.77636719 -64.56738281 170.77636719 Z M-22.56738281 169.77636719 C-21.56738281 171.77636719 -21.56738281 171.77636719 -21.56738281 171.77636719 Z M-88.56738281 170.77636719 C-88.89738281 171.43636719 -89.22738281 172.09636719 -89.56738281 172.77636719 C-88.57738281 172.44636719 -87.58738281 172.11636719 -86.56738281 171.77636719 C-87.22738281 171.44636719 -87.88738281 171.11636719 -88.56738281 170.77636719 Z M-59.56738281 170.77636719 C-58.90738281 171.43636719 -58.24738281 172.09636719 -57.56738281 172.77636719 C-57.23738281 172.11636719 -56.90738281 171.45636719 -56.56738281 170.77636719 C-57.55738281 170.77636719 -58.54738281 170.77636719 -59.56738281 170.77636719 Z M-51.56738281 171.77636719 C-51.23738281 172.43636719 -50.90738281 173.09636719 -50.56738281 173.77636719 C-50.23738281 173.11636719 -49.90738281 172.45636719 -49.56738281 171.77636719 C-50.22738281 171.77636719 -50.88738281 171.77636719 -51.56738281 171.77636719 Z M-25.56738281 172.77636719 C-25.23738281 173.43636719 -24.90738281 174.09636719 -24.56738281 174.77636719 C-24.23738281 174.11636719 -23.90738281 173.45636719 -23.56738281 172.77636719 C-24.22738281 172.77636719 -24.88738281 172.77636719 -25.56738281 172.77636719 Z M-28.56738281 173.77636719 C-28.56738281 176.77636719 -28.56738281 176.77636719 -28.56738281 176.77636719 Z M-79.56738281 178.77636719 C-79.23738281 179.43636719 -78.90738281 180.09636719 -78.56738281 180.77636719 C-78.23738281 180.11636719 -77.90738281 179.45636719 -77.56738281 178.77636719 C-78.22738281 178.77636719 -78.88738281 178.77636719 -79.56738281 178.77636719 Z M-76.56738281 179.77636719 C-76.23738281 180.43636719 -75.90738281 181.09636719 -75.56738281 181.77636719 C-75.23738281 181.11636719 -74.90738281 180.45636719 -74.56738281 179.77636719 C-75.22738281 179.77636719 -75.88738281 179.77636719 -76.56738281 179.77636719 Z M-62.56738281 179.77636719 C-62.89738281 180.43636719 -63.22738281 181.09636719 -63.56738281 181.77636719 C-62.90738281 181.77636719 -62.24738281 181.77636719 -61.56738281 181.77636719 C-61.89738281 181.11636719 -62.22738281 180.45636719 -62.56738281 179.77636719 Z M-44.56738281 179.77636719 C-44.89738281 180.43636719 -45.22738281 181.09636719 -45.56738281 181.77636719 C-44.57738281 181.44636719 -43.58738281 181.11636719 -42.56738281 180.77636719 C-43.22738281 180.44636719 -43.88738281 180.11636719 -44.56738281 179.77636719 Z M-50.56738281 182.77636719 C-46.56738281 183.77636719 -46.56738281 183.77636719 -46.56738281 183.77636719 Z " fill="#000000" transform="translate(180.5673828125,32.2236328125)"/>
<path d="M0 0 C6.09264158 0.57385602 11.05137087 4.36601412 16.14257812 7.49414062 C21.42477925 10.58322533 24.87896254 11.55138194 31 11 C31.33 10.01 31.66 9.02 32 8 C32.66 8 33.32 8 34 8 C34.3125 10.6875 34.3125 10.6875 34 14 C33.195625 14.78375 32.39125 15.5675 31.5625 16.375 C28.6277619 19.38131708 28.70076937 20.77312169 28.41796875 24.81640625 C27.31656691 30.57045884 23.07640018 35.47977542 18.5 38.9375 C13.46616139 42.14588065 8.97551123 43.28454815 3 43 C5.14072301 40.64520469 7.1394109 39.35937085 10 38 C9.31035156 38.15597656 8.62070313 38.31195313 7.91015625 38.47265625 C-5.93163191 41.33974817 -5.93163191 41.33974817 -11.8203125 37.953125 C-15.51019973 35.06538717 -17.60766642 32.23556117 -18.4140625 27.640625 C-18.48367187 26.85171875 -18.55328125 26.0628125 -18.625 25.25 C-18.69976562 24.45078125 -18.77453125 23.6515625 -18.8515625 22.828125 C-18.90054688 22.22484375 -18.94953125 21.6215625 -19 21 C-19.66 21 -20.32 21 -21 21 C-20.44029001 14.3954221 -19.67882421 10.40407301 -14.5625 5.8125 C-9.56333797 3.26906669 -4.52638213 2.67961981 1 2 C0.67 1.34 0.34 0.68 0 0 Z " fill="#000000" transform="translate(89,97)"/>
<path d="M0 0 C1.32 0.66 2.64 1.32 4 2 C4.66 1.34 5.32 0.68 6 0 C7.9375 0 7.9375 0 10 1 C11.95320589 4.20883825 13 6.2205439 13 10 C13.66 10.33 14.32 10.66 15 11 C15.34153937 12.66500443 15.67449498 14.33178677 16 16 C16.66 16.66 17.32 17.32 18 18 C18 20 18 22 18 24 C18.99 24.33 19.98 24.66 21 25 C20.566875 25.391875 20.13375 25.78375 19.6875 26.1875 C17.84725598 27.98200618 17.84725598 27.98200618 16.75 30.625 C15 33 15 33 11.5 34 C8 34 8 34 6.125 32.6875 C5 31 5 31 4 29 C3.62875 29.825 3.2575 30.65 2.875 31.5 C1 34 1 34 -1.9375 34.5625 C-5.57593918 33.89421525 -6.77791885 32.90579843 -9 30 C-9 29.34 -9 28.68 -9 28 C-9.99 27.67 -10.98 27.34 -12 27 C-11.34 26.67 -10.68 26.34 -10 26 C-9.30772968 23.19019327 -9.30772968 23.19019327 -8.875 19.9375 C-8.70742187 18.83277344 -8.53984375 17.72804687 -8.3671875 16.58984375 C-8.24601562 15.73519531 -8.12484375 14.88054687 -8 14 C-7.34 14 -6.68 14 -6 14 C-5.9175 13.34 -5.835 12.68 -5.75 12 C-4.73979683 7.9591873 -3.01230249 3.01230249 0 0 Z " fill="#000000" transform="translate(123,127)"/>
<path d="M0 0 C1.11375 0.3403125 1.11375 0.3403125 2.25 0.6875 C1.92 1.6775 1.59 2.6675 1.25 3.6875 C-1.39 3.3575 -4.03 3.0275 -6.75 2.6875 C-4.29511132 0.41445492 -3.41240272 -0.38777304 0 0 Z " fill="#000000" transform="translate(124.75,165.3125)"/>
<path d="M0 0 C0.33 0.99 0.66 1.98 1 3 C2.65 2.67 4.3 2.34 6 2 C6 2.66 6 3.32 6 4 C4.02 4.33 2.04 4.66 0 5 C-0.5625 3.0625 -0.5625 3.0625 -1 1 C-0.67 0.67 -0.34 0.34 0 0 Z " fill="#000000" transform="translate(109,166)"/>
<path d="M0 0 C0.66 0.33 1.32 0.66 2 1 C1.34 2.32 0.68 3.64 0 5 C-1.32 4.34 -2.64 3.68 -4 3 C-2.68 2.01 -1.36 1.02 0 0 Z " fill="#000000" transform="translate(181,142)"/>
<path d="M0 0 C1.32 0 2.64 0 4 0 C4 0.66 4 1.32 4 2 C2.02 2 0.04 2 -2 2 C-1.34 1.34 -0.68 0.68 0 0 Z " fill="#000000" transform="translate(111,171)"/>
<path d="M0 0 C2 2 2 2 2 4 C0.68 3.67 -0.64 3.34 -2 3 C-1.34 2.01 -0.68 1.02 0 0 Z " fill="#000000" transform="translate(119,169)"/>
<path d="M0 0 C2.97 0.495 2.97 0.495 6 1 C5.01 1.495 5.01 1.495 4 2 C3.67 2.66 3.34 3.32 3 4 C2.01 2.68 1.02 1.36 0 0 Z " fill="#000000" transform="translate(144,156)"/>
<path d="M0 0 C0.99 0 1.98 0 3 0 C3 0.99 3 1.98 3 3 C2.01 2.67 1.02 2.34 0 2 C0 1.34 0 0.68 0 0 Z " fill="#000000" transform="translate(83,186)"/>
<path d="M0 0 C0.99 1.32 1.98 2.64 3 4 C1.35 3.67 -0.3 3.34 -2 3 C-1.34 2.67 -0.68 2.34 0 2 C0 1.34 0 0.68 0 0 Z " fill="#000000" transform="translate(149,153)"/>
<path d="M0 0 C0.66 0.33 1.32 0.66 2 1 C1.67 1.99 1.34 2.98 1 4 C0.34 3.67 -0.32 3.34 -1 3 C-0.67 2.01 -0.34 1.02 0 0 Z " fill="#000000" transform="translate(85,190)"/>
<path d="M0 0 C2.475 0.495 2.475 0.495 5 1 C4.01 1.33 3.02 1.66 2 2 C1.34 1.34 0.68 0.68 0 0 Z " fill="#000000" transform="translate(115,164)"/>
<path d="M0 0 C0 0.99 0 1.98 0 3 C-0.99 3.495 -0.99 3.495 -2 4 C-1.34 2.68 -0.68 1.36 0 0 Z " fill="#000000" transform="translate(152,144)"/>
<path d="M0 0 C0.99 0.495 0.99 0.495 2 1 C1.34 2.32 0.68 3.64 0 5 C0 3.35 0 1.7 0 0 Z " fill="#000000" transform="translate(154,142)"/>
<path d="M0 0 C1.65 0 3.3 0 5 0 C4.34 0.66 3.68 1.32 3 2 C2.01 1.34 1.02 0.68 0 0 Z " fill="#000000" transform="translate(184,128)"/>
<path d="M0 0 C1.65 0 3.3 0 5 0 C5 0.33 5 0.66 5 1 C3.35 1 1.7 1 0 1 C0 0.67 0 0.34 0 0 Z " fill="#000000" transform="translate(124,170)"/>
<path d="M0 0 C0.33 0.66 0.66 1.32 1 2 C0.01 2.33 -0.98 2.66 -2 3 C-2 2.34 -2 1.68 -2 1 C-1.34 0.67 -0.68 0.34 0 0 Z " fill="#000000" transform="translate(128,162)"/>
<path d="M0 0 C0.66 0.66 1.32 1.32 2 2 C0.68 1.67 -0.64 1.34 -2 1 C-1.34 0.67 -0.68 0.34 0 0 Z " fill="#000000" transform="translate(110,159)"/>
<path d="M0 0 C0.66 0.66 1.32 1.32 2 2 C1.01 2 0.02 2 -1 2 C-0.67 1.34 -0.34 0.68 0 0 Z " fill="#000000" transform="translate(154,148)"/>
<path d="M0 0 C0.66 0.33 1.32 0.66 2 1 C0.68 1.33 -0.64 1.66 -2 2 C-1.34 1.34 -0.68 0.68 0 0 Z " fill="#000000" transform="translate(149,139)"/>
<path d="M0 0 C0.99 0.33 1.98 0.66 3 1 C2.01 1 1.02 1 0 1 C0 0.67 0 0.34 0 0 Z " fill="#000000" transform="translate(144,159)"/>
<path d="M0 0 C0.99 0.33 1.98 0.66 3 1 C2.01 1 1.02 1 0 1 C0 0.67 0 0.34 0 0 Z " fill="#000000" transform="translate(144,153)"/>
<path d="M0 0 C0 3 0 3 0 3 Z " fill="#000000" transform="translate(152,147)"/>
<path d="M0 0 C0.99 0.33 1.98 0.66 3 1 C2.01 1 1.02 1 0 1 C0 0.67 0 0.34 0 0 Z " fill="#000000" transform="translate(145,147)"/>
<path d="M0 0 C0.99 0.33 1.98 0.66 3 1 C2.01 1 1.02 1 0 1 C0 0.67 0 0.34 0 0 Z " fill="#000000" transform="translate(175,142)"/>
<path d="M0 0 C0.33 0.66 0.66 1.32 1 2 C0.01 1.67 -0.98 1.34 -2 1 C-1.34 0.67 -0.68 0.34 0 0 Z " fill="#000000" transform="translate(182,99)"/>
<path d="M0 0 C1.485 0.99 1.485 0.99 3 2 C2.01 2 1.02 2 0 2 C0 1.34 0 0.68 0 0 Z " fill="#000000" transform="translate(195,92)"/>
<path d="M0 0 C0.99 0.495 0.99 0.495 2 1 C1.01 1.495 1.01 1.495 0 2 C0 1.34 0 0.68 0 0 Z " fill="#000000" transform="translate(87,193)"/>
<path d="M0 0 C3 1 3 1 3 1 Z " fill="#000000" transform="translate(83,184)"/>
<path d="M0 0 C0.66 0 1.32 0 2 0 C1.67 0.66 1.34 1.32 1 2 C0.67 1.34 0.34 0.68 0 0 Z " fill="#000000" transform="translate(116,168)"/>
<path d="M0 0 C0.99 0.495 0.99 0.495 2 1 C1.01 1.495 1.01 1.495 0 2 C0 1.34 0 0.68 0 0 Z " fill="#000000" transform="translate(114,162)"/>
<path d="M0 0 C0.33 0.66 0.66 1.32 1 2 C0.34 1.67 -0.32 1.34 -1 1 C-0.67 0.67 -0.34 0.34 0 0 Z " fill="#000000" transform="translate(151,151)"/>
<path d="M0 0 C0.66 0 1.32 0 2 0 C1.67 0.66 1.34 1.32 1 2 C0.67 1.34 0.34 0.68 0 0 Z " fill="#000000" transform="translate(156,145)"/>
<path d="M0 0 C0.33 0.66 0.66 1.32 1 2 C0.34 1.67 -0.32 1.34 -1 1 C-0.67 0.67 -0.34 0.34 0 0 Z " fill="#000000" transform="translate(151,140)"/>
<path d="M0 0 C0.66 0 1.32 0 2 0 C1.67 0.66 1.34 1.32 1 2 C0.67 1.34 0.34 0.68 0 0 Z " fill="#000000" transform="translate(168,95)"/>
<path d="M0 0 C0.66 0 1.32 0 2 0 C1.67 0.66 1.34 1.32 1 2 C0.67 1.34 0.34 0.68 0 0 Z " fill="#000000" transform="translate(162,94)"/>
<path d="M0 0 C2 1 2 1 2 1 Z " fill="#000000" transform="translate(80,193)"/>
<path d="" fill="#000000" transform="translate(0,0)"/>
<path d="M0 0 C2 1 2 1 2 1 Z " fill="#000000" transform="translate(128,172)"/>
<path d="" fill="#000000" transform="translate(0,0)"/>
<path d="" fill="#000000" transform="translate(0,0)"/>
<path d="M0 0 C2 1 2 1 2 1 Z " fill="#000000" transform="translate(109,163)"/>
<path d="M0 0 C2 1 2 1 2 1 Z " fill="#000000" transform="translate(103,163)"/>
<path d="M0 0 C2 1 2 1 2 1 Z " fill="#000000" transform="translate(142,161)"/>
<path d="M0 0 C2 1 2 1 2 1 Z " fill="#000000" transform="translate(126,161)"/>
<path d="M0 0 C2 1 2 1 2 1 Z " fill="#000000" transform="translate(108,158)"/>
<path d="M0 0 C2 1 2 1 2 1 Z " fill="#000000" transform="translate(142,157)"/>
<path d="" fill="#000000" transform="translate(0,0)"/>
<path d="M0 0 C2 1 2 1 2 1 Z " fill="#000000" transform="translate(99,148)"/>
<path d="M0 0 C2 1 2 1 2 1 Z " fill="#000000" transform="translate(155,147)"/>
<path d="M0 0 C2 1 2 1 2 1 Z " fill="#000000" transform="translate(94,146)"/>
<path d="M0 0 C2 1 2 1 2 1 Z " fill="#000000" transform="translate(148,145)"/>
<path d="M0 0 C2 1 2 1 2 1 Z " fill="#000000" transform="translate(148,143)"/>
<path d="" fill="#000000" transform="translate(0,0)"/>
<path d="M0 0 C2 1 2 1 2 1 Z " fill="#000000" transform="translate(156,141)"/>
<path d="M0 0 C2 1 2 1 2 1 Z " fill="#000000" transform="translate(141,139)"/>
<path d="M0 0 C2 1 2 1 2 1 Z " fill="#000000" transform="translate(141,137)"/>
<path d="M0 0 C2 1 2 1 2 1 Z " fill="#000000" transform="translate(145,136)"/>
<path d="M0 0 C2 1 2 1 2 1 Z " fill="#000000" transform="translate(141,134)"/>
<path d="M0 0 C2 1 2 1 2 1 Z " fill="#000000" transform="translate(136,133)"/>
<path d="" fill="#000000" transform="translate(0,0)"/>
<path d="" fill="#000000" transform="translate(0,0)"/>
<path d="" fill="#000000" transform="translate(0,0)"/>
<path d="M0 0 C2 1 2 1 2 1 Z " fill="#000000" transform="translate(196,91)"/>
<path d="M0 0 C2 1 2 1 2 1 Z " fill="#000000" transform="translate(191,87)"/>
<path d="M0 0 C2 1 2 1 2 1 Z " fill="#000000" transform="translate(195,81)"/>
<path d="" fill="#000000" transform="translate(0,0)"/>
<path d="" fill="#000000" transform="translate(0,0)"/>
<path d="" fill="#000000" transform="translate(0,0)"/>
<path d="" fill="#000000" transform="translate(0,0)"/>
<path d="" fill="#000000" transform="translate(0,0)"/>
<path d="" fill="#000000" transform="translate(0,0)"/>
<path d="" fill="#000000" transform="translate(0,0)"/>
<path d="" fill="#000000" transform="translate(0,0)"/>
<path d="" fill="#000000" transform="translate(0,0)"/>
<path d="" fill="#000000" transform="translate(0,0)"/>
<path d="" fill="#000000" transform="translate(0,0)"/>
<path d="" fill="#000000" transform="translate(0,0)"/>
<path d="" fill="#000000" transform="translate(0,0)"/>
<path d="" fill="#000000" transform="translate(0,0)"/>
<path d="" fill="#000000" transform="translate(0,0)"/>
<path d="" fill="#000000" transform="translate(0,0)"/>
<path d="" fill="#000000" transform="translate(0,0)"/>
<path d="" fill="#000000" transform="translate(0,0)"/>
<path d="" fill="#000000" transform="translate(0,0)"/>
<path d="" fill="#000000" transform="translate(0,0)"/>
<path d="" fill="#000000" transform="translate(0,0)"/>
<path d="" fill="#000000" transform="translate(0,0)"/>
<path d="" fill="#000000" transform="translate(0,0)"/>
<path d="" fill="#000000" transform="translate(0,0)"/>
<path d="" fill="#000000" transform="translate(0,0)"/>
<path d="" fill="#000000" transform="translate(0,0)"/>
<path d="" fill="#000000" transform="translate(0,0)"/>
<path d="" fill="#000000" transform="translate(0,0)"/>
<path d="" fill="#000000" transform="translate(0,0)"/>
<path d="" fill="#000000" transform="translate(0,0)"/>
<path d="" fill="#000000" transform="translate(0,0)"/>
<path d="" fill="#000000" transform="translate(0,0)"/>
<path d="" fill="#000000" transform="translate(0,0)"/>
<path d="" fill="#000000" transform="translate(0,0)"/>
<path d="" fill="#000000" transform="translate(0,0)"/>
<path d="" fill="#000000" transform="translate(0,0)"/>
<path d="" fill="#000000" transform="translate(0,0)"/>
<path d="" fill="#000000" transform="translate(0,0)"/>
<path d="" fill="#000000" transform="translate(0,0)"/>
<path d="" fill="#000000" transform="translate(0,0)"/>
<path d="" fill="#000000" transform="translate(0,0)"/>
<path d="" fill="#000000" transform="translate(0,0)"/>
<path d="" fill="#000000" transform="translate(0,0)"/>
<path d="" fill="#000000" transform="translate(0,0)"/>
<path d="" fill="#000000" transform="translate(0,0)"/>
<path d="" fill="#000000" transform="translate(0,0)"/>
<path d="" fill="#000000" transform="translate(0,0)"/>
<path d="" fill="#000000" transform="translate(0,0)"/>
<path d="" fill="#000000" transform="translate(0,0)"/>
<path d="" fill="#000000" transform="translate(0,0)"/>
<path d="" fill="#000000" transform="translate(0,0)"/>
<path d="" fill="#000000" transform="translate(0,0)"/>
<path d="" fill="#000000" transform="translate(0,0)"/>
<path d="" fill="#000000" transform="translate(0,0)"/>
<path d="" fill="#000000" transform="translate(0,0)"/>
<path d="" fill="#000000" transform="translate(0,0)"/>
<path d="" fill="#000000" transform="translate(0,0)"/>
<path d="" fill="#000000" transform="translate(0,0)"/>
<path d="" fill="#000000" transform="translate(0,0)"/>
<path d="" fill="#000000" transform="translate(0,0)"/>
<path d="" fill="#000000" transform="translate(0,0)"/>
<path d="" fill="#000000" transform="translate(0,0)"/>
<path d="" fill="#000000" transform="translate(0,0)"/>
<path d="" fill="#000000" transform="translate(0,0)"/>
<path d="" fill="#000000" transform="translate(0,0)"/>
<path d="" fill="#000000" transform="translate(0,0)"/>
<path d="" fill="#000000" transform="translate(0,0)"/>
<path d="" fill="#000000" transform="translate(0,0)"/>
<path d="" fill="#000000" transform="translate(0,0)"/>
<path d="" fill="#000000" transform="translate(0,0)"/>
<path d="" fill="#000000" transform="translate(0,0)"/>
<path d="" fill="#000000" transform="translate(0,0)"/>
<path d="" fill="#000000" transform="translate(0,0)"/>
<path d="" fill="#000000" transform="translate(0,0)"/>
<path d="" fill="#000000" transform="translate(0,0)"/>
<path d="" fill="#000000" transform="translate(0,0)"/>
<path d="" fill="#000000" transform="translate(0,0)"/>
<path d="" fill="#000000" transform="translate(0,0)"/>
<path d="" fill="#000000" transform="translate(0,0)"/>
<path d="" fill="#000000" transform="translate(0,0)"/>
<path d="" fill="#000000" transform="translate(0,0)"/>
<path d="" fill="#000000" transform="translate(0,0)"/>
<path d="" fill="#000000" transform="translate(0,0)"/>
<path d="" fill="#000000" transform="translate(0,0)"/>
<path d="" fill="#000000" transform="translate(0,0)"/>
<path d="" fill="#000000" transform="translate(0,0)"/>
<path d="" fill="#000000" transform="translate(0,0)"/>
<path d="" fill="#000000" transform="translate(0,0)"/>
<path d="" fill="#000000" transform="translate(0,0)"/>
<path d="" fill="#000000" transform="translate(0,0)"/>
<path d="" fill="#000000" transform="translate(0,0)"/>
<path d="" fill="#000000" transform="translate(0,0)"/>
<path d="" fill="#000000" transform="translate(0,0)"/>
<path d="" fill="#000000" transform="translate(0,0)"/>
<path d="" fill="#000000" transform="translate(0,0)"/>
<path d="" fill="#000000" transform="translate(0,0)"/>
<path d="" fill="#000000" transform="translate(0,0)"/>
<path d="" fill="#000000" transform="translate(0,0)"/>
<path d="" fill="#000000" transform="translate(0,0)"/>
<path d="" fill="#000000" transform="translate(0,0)"/>
<path d="" fill="#000000" transform="translate(0,0)"/>
<path d="" fill="#000000" transform="translate(0,0)"/>
<path d="" fill="#000000" transform="translate(0,0)"/>
<path d="" fill="#000000" transform="translate(0,0)"/>
<path d="" fill="#000000" transform="translate(0,0)"/>
<path d="" fill="#000000" transform="translate(0,0)"/>
<path d="" fill="#000000" transform="translate(0,0)"/>
<path d="" fill="#000000" transform="translate(0,0)"/>
<path d="" fill="#000000" transform="translate(0,0)"/>
<path d="" fill="#000000" transform="translate(0,0)"/>
<path d="" fill="#000000" transform="translate(0,0)"/>
<path d="" fill="#000000" transform="translate(0,0)"/>
<path d="" fill="#000000" transform="translate(0,0)"/>
<path d="" fill="#000000" transform="translate(0,0)"/>
<path d="" fill="#000000" transform="translate(0,0)"/>
<path d="" fill="#000000" transform="translate(0,0)"/>
<path d="" fill="#000000" transform="translate(0,0)"/>
<path d="" fill="#000000" transform="translate(0,0)"/>
<path d="" fill="#000000" transform="translate(0,0)"/>
<path d="" fill="#000000" transform="translate(0,0)"/>
<path d="" fill="#000000" transform="translate(0,0)"/>
<path d="" fill="#000000" transform="translate(0,0)"/>
<path d="" fill="#000000" transform="translate(0,0)"/>
<path d="" fill="#000000" transform="translate(0,0)"/>
<path d="" fill="#000000" transform="translate(0,0)"/>
<path d="" fill="#000000" transform="translate(0,0)"/>
<path d="" fill="#000000" transform="translate(0,0)"/>
<path d="" fill="#000000" transform="translate(0,0)"/>
<path d="" fill="#000000" transform="translate(0,0)"/>
<path d="" fill="#000000" transform="translate(0,0)"/>
<path d="" fill="#000000" transform="translate(0,0)"/>
<path d="" fill="#000000" transform="translate(0,0)"/>
</svg>
