<?xml version="1.0" encoding="UTF-8"?>
<svg version="1.1" xmlns="http://www.w3.org/2000/svg" width="256" height="256">
<path d="M0 0 C0.66 0 1.32 0 2 0 C3.2265625 1.8359375 3.2265625 1.8359375 4.625 4.375 C9.06421432 12.02694644 14.49665936 18.9844099 21 25 C21.50144531 25.51820312 22.00289062 26.03640625 22.51953125 26.5703125 C32.60743533 36.37250252 46.79210627 41.05281337 60 45 C59.55269531 44.42894531 59.10539062 43.85789063 58.64453125 43.26953125 C52.37084628 34.85556995 46.82544442 24.43778092 46.90234375 13.671875 C46.90717773 12.47304688 46.90717773 12.47304688 46.91210938 11.25 C46.92467773 10.0125 46.92467773 10.0125 46.9375 8.75 C46.94201172 7.90953125 46.94652344 7.0690625 46.95117188 6.203125 C46.96292039 4.13538599 46.98085478 2.06768376 47 0 C49.57801348 3.1057092 51.74331458 6.15527123 53.6875 9.6875 C60.36220516 20.92910869 69.79949203 30.56071854 82.5859375 34.265625 C90.8678249 36.78503411 98.54829749 40.65317354 106 45 C105.01 41.37 104.02 37.74 103 34 C114.25546845 38.97838028 127.34089552 47.68179103 133 59 C134.32 59 135.64 59 137 59 C140.27115225 60.94352979 143.07908409 63.57068284 146 66 C147.20808077 66.93040753 148.41782152 67.85866227 149.62890625 68.78515625 C159.58043848 76.59809973 159.58043848 76.59809973 160.8125 80.71484375 C160.8938385 82.3644902 160.97336181 84.01422748 161.05078125 85.6640625 C163.35156105 91.32606381 171.71680489 93.69904641 177 96 C176.67 92.7 176.34 89.4 176 86 C185.3595784 92.01687183 193.23328684 98.88184131 196.4375 110.0625 C197.79965329 119.59757302 197.5010319 128.74845214 192 137 C191.01 137 190.02 137 189 137 C187.83602286 138.69608098 186.67528875 140.39457956 185.5390625 142.109375 C182.91452022 145.33343201 179.60180061 146.98543356 176 149 C176.99 142.565 176.99 142.565 178 136 C176.63875 137.588125 175.2775 139.17625 173.875 140.8125 C170.55090435 144.69061159 167.69392154 146.95236176 163 149 C163.2165625 148.19175781 163.433125 147.38351563 163.65625 146.55078125 C163.9346875 145.48214844 164.213125 144.41351563 164.5 143.3125 C164.91765625 141.72888672 164.91765625 141.72888672 165.34375 140.11328125 C165.9391715 137.28857328 166.12786492 134.87163292 166 132 C165.36191406 132.5775 164.72382813 133.155 164.06640625 133.75 C163.24011719 134.4925 162.41382813 135.235 161.5625 136 C160.73878906 136.7425 159.91507813 137.485 159.06640625 138.25 C157 140 157 140 156 140 C155.67 136.37 155.34 132.74 155 129 C153.88625 129.99 152.7725 130.98 151.625 132 C148.25 135 148.25 135 146 135 C145.67 132.36 145.34 129.72 145 127 C144.29507107 128.21925475 143.61174099 129.4510106 142.9375 130.6875 C142.55464844 131.37199219 142.17179688 132.05648437 141.77734375 132.76171875 C140.01421457 137.8384676 143.12629313 143.38801897 144.9375 148.1875 C145.20240234 148.91130859 145.46730469 149.63511719 145.74023438 150.38085938 C147.28261781 154.54662837 147.28261781 154.54662837 150 158 C150.78375 157.175 151.5675 156.35 152.375 155.5 C155 153 155 153 157 153 C157.33 157.29 157.66 161.58 158 166 C158.94875 164.845 159.8975 163.69 160.875 162.5 C162.4921875 160.53125 162.4921875 160.53125 164 159 C164.66 159 165.32 159 166 159 C166.66 157.68 167.32 156.36 168 155 C168.33 155 168.66 155 169 155 C168.88501733 157.20887757 168.75756495 159.41710787 168.625 161.625 C168.55539063 162.85476562 168.48578125 164.08453125 168.4140625 165.3515625 C168.01629081 168.85645641 167.16864748 171.68959001 166 175 C165.74836123 176.62167207 165.51802177 178.24684056 165.3125 179.875 C163.82274364 187.50713644 158.80106671 191.90075948 152.6875 196.3125 C147.82174591 199.36192808 141.57692434 202.67638603 135.70703125 201.56640625 C135.14371094 201.37949219 134.58039063 201.19257813 134 201 C134.99 199.02 135.98 197.04 137 195 C136.11957031 195.02320313 135.23914063 195.04640625 134.33203125 195.0703125 C133.17058594 195.08835938 132.00914062 195.10640625 130.8125 195.125 C129.66394531 195.14820313 128.51539063 195.17140625 127.33203125 195.1953125 C124.08259628 195.00484152 121.91339479 194.39360127 119 193 C119.9590625 192.195625 119.9590625 192.195625 120.9375 191.375 C123.57828241 188.33409904 124.15277765 187.04860762 124 183 C121.28643547 177.50379838 116.19039124 169.45290521 110.15234375 167.359375 C103.04270759 166.17228512 96.22559669 166.18841019 90 170 C84.78796307 176.58362559 84.17546169 182.64842618 84.72607422 190.87011719 C86.04138806 201.09720985 90.6352842 211.28631836 95.8984375 220.03125 C97 222 97 222 97 224 C91.99737332 222.30925142 87.83820189 219.47296397 83.4375 216.625 C75.70338159 211.6670962 67.88523325 206.88527995 59.93920898 202.27392578 C54.2517096 198.9212573 49.14826178 195.13607858 44 191 C44.495 199.91 44.495 199.91 45 209 C33.28477508 205.09492503 24.63763968 197.55884016 16 189 C14.77410156 187.7934375 14.77410156 187.7934375 13.5234375 186.5625 C3.60991166 176.20610187 -6.00621837 160.57546397 -7 146 C-9.63424866 144.996187 -10.72701174 144.89479965 -13.40234375 145.92578125 C-14.23894531 146.38339844 -15.07554688 146.84101563 -15.9375 147.3125 C-19.23991574 149.09386491 -22.49133833 150.66306809 -26 152 C-22.75026629 142.40554809 -19.51931128 133.91729523 -13 126 C-12.38253906 125.22140625 -11.76507813 124.4428125 -11.12890625 123.640625 C-6.42887024 118.00436451 -1.17297177 113.93400455 5 110 C-1.66979283 107.77673572 -9.15583251 108.98604926 -16 110 C-10.83384377 98.10707785 2.56885263 91.52891172 14 87 C15.98928343 86.30200581 17.98504093 85.61998741 20 85 C12.94343217 80.1759304 6.37821292 77.64109325 -2 76 C-2 75.34 -2 74.68 -2 74 C9.80625616 68.03971853 20.81047743 64.56509977 34 63 C33.14277344 62.3709375 32.28554687 61.741875 31.40234375 61.09375 C14.57879645 48.58128283 3.936792 33.23529807 0.375 12.33203125 C0.05992147 9.53242725 -0.10576181 6.87451771 -0.0625 4.0625 C-0.05347656 3.29035156 -0.04445313 2.51820312 -0.03515625 1.72265625 C-0.02355469 1.15417969 -0.01195313 0.58570312 0 0 Z M7 18 C8 20 8 20 8 20 Z M53 19 C54.25008994 26.62554866 56.89372158 32.47034416 61 39 C61.45761719 39.78246094 61.91523437 40.56492187 62.38671875 41.37109375 C65.65057473 46.03986412 68.77024352 47.48667131 74.20166016 48.61132812 C77.46060375 49.17785337 80.71373847 49.62127118 84 50 C80.6873023 42.31454134 76.80666251 38.76707125 70.125 33.91015625 C64.50759499 29.80242884 59.5708923 25.88045682 55.20703125 20.43359375 C54.80871094 19.96050781 54.41039063 19.48742187 54 19 C53.67 19 53.34 19 53 19 Z M8 20 C10.02168236 33.47788238 18.46738144 45.37984824 29.15454102 53.67163086 C35.2418736 58.075246 41.60707118 61.57523209 48.3125 64.9375 C71.04889189 76.57028478 71.04889189 76.57028478 76 82 C79.05665662 81.09126425 80.72305703 80.32469175 82.8125 77.875 C85.13714922 72.24690188 84.51971918 67.47130522 82.5 61.875 C78.49488379 54.58791356 70.44407295 53.22341713 63 51 C45.16888832 45.47156166 29.00304373 39.83301329 15.515625 26.48046875 C13.127181 24.12540363 10.6534945 22.04739054 8 20 Z M86 41 C86.47859241 42.60433809 86.95789558 44.20846416 87.4375 45.8125 C87.70433594 46.70582031 87.97117187 47.59914063 88.24609375 48.51953125 C89.61858707 53.32872812 89.61858707 53.32872812 93.4375 56.1875 C96.63091447 58.15115241 96.63091447 58.15115241 99 58 C99 57.34 99 56.68 99 56 C110.83425826 59.04644272 121.24447385 63.22034004 132 69 C133.33034962 69.672601 134.66198161 70.34278694 136 71 C134.02139342 68.31688956 132.01534463 65.65561403 130 63 C129.38511719 62.18273437 128.77023438 61.36546875 128.13671875 60.5234375 C123.60310688 54.65427264 118.70828193 49.73047438 113 45 C112.03929566 47.88211302 111.89418117 49.69850044 111.9375 52.6875 C111.94652344 53.49574219 111.95554688 54.30398437 111.96484375 55.13671875 C111.97644531 55.75160156 111.98804688 56.36648437 112 57 C111.5359375 56.5153125 111.071875 56.030625 110.59375 55.53125 C105.35993172 50.4536651 93.90072495 41 86 41 Z M85 57 C85.495 58.093125 85.99 59.18625 86.5 60.3125 C88.85753781 66.63294661 89.09865349 73.12257418 86.6875 79.4375 C85.19877948 81.69814969 83.70088526 83.89414206 82 86 C82.53109375 86.30292969 83.0621875 86.60585937 83.609375 86.91796875 C87.93329703 89.48233857 91.1035653 91.77603273 94 96 C92.88625 95.38125 91.7725 94.7625 90.625 94.125 C82.86016691 90.25659327 74.34385411 89.75410633 65.8125 89.125 C53.63603281 88.08608546 42.88477027 85.76252543 32 80 C31.34 80.33 30.68 80.66 30 81 C40.0560286 92.81487771 48.78627996 98.86603935 64 103 C65.85627236 103.513278 67.71067343 104.03340669 69.5625 104.5625 C70.32691406 104.77003906 71.09132812 104.97757813 71.87890625 105.19140625 C74.28666442 106.10928091 76.01416306 107.37440559 78 109 C77.70281707 111.77370737 77.08330296 112.91392028 75.125 114.9375 C68.33563754 119.41847923 60.62940523 122.2649302 53 125 C57.64024038 129.64024038 65.98448499 130.49035545 72.328125 131.015625 C77.30713921 130.98650796 82.13872125 130.01067823 87 129 C86.10600401 136.5218973 84.03529397 141.33133572 79 147 C80.155 147.350625 81.31 147.70125 82.5 148.0625 C99.35982268 153.744393 118.12499028 161.72160466 127 178.0625 C128.95553383 182.29403976 129.50143914 185.38675993 129 190 C136.73232013 189.50669135 136.73232013 189.50669135 144 187 C143.505 190.96 143.505 190.96 143 195 C150.38665898 191.90860147 155.18916226 188.41976029 160 182 C159.67 181.34 159.34 180.68 159 180 C157.72125 180.103125 156.4425 180.20625 155.125 180.3125 C147.57350983 180.27693568 141.52666395 176.71676111 136.0625 171.6875 C125.03858387 159.83790594 116.99072431 145.28806578 111.4375 130.1875 C108.82250585 123.1424993 105.58714517 116.09335025 99 112 C95.41642759 111.74984127 95.41642759 111.74984127 92 112 C91.34 112 90.68 112 90 112 C92.46581605 109.53418395 94.08846619 108.98447962 97.5625 108.375 C101.69378978 108.48250568 104.08716384 110.1819803 107.4375 112.5 C112.52574145 116.00037137 115.92594839 116.99370987 122 116 C122.804375 115.835 123.60875 115.67 124.4375 115.5 C134.36444153 113.5630358 140.21574951 116.20410983 148.6796875 121.15234375 C153.4859083 123.82686426 156.7344643 124.07418202 162.24511719 123.93481445 C172.66075316 123.67303452 180.74522638 124.88551984 190 130 C193.53460782 121.60530644 192.57260304 113.85770623 189.28515625 105.5625 C187.36392168 101.73171009 185.02628733 99.02628733 182 96 C181.67 96 181.34 96 181 96 C181 97.98 181 99.96 181 102 C174.65295861 100.08942534 168.89560018 97.63652059 163.0625 94.5 C162.30904297 94.10941406 161.55558594 93.71882813 160.77929688 93.31640625 C160.05935547 92.93355469 159.33941406 92.55070312 158.59765625 92.15625 C157.95320557 91.81400391 157.30875488 91.47175781 156.64477539 91.11914062 C155 90 155 90 153 87 C154.32 86.67 155.64 86.34 157 86 C155.72157218 81.02993229 153.99771322 78.58260188 150.125 75.25 C149.26132813 74.49203125 148.39765625 73.7340625 147.5078125 72.953125 C145.37306541 71.29054939 143.46597069 70.07814533 141 69 C140.67 71.31 140.34 73.62 140 76 C140.48210937 76.31453125 140.96421875 76.6290625 141.4609375 76.953125 C148.05207724 81.41895846 148.05207724 81.41895846 149 85 C149.20643522 88.85345749 149.18133323 92.30833366 148 96 C148.86625 96.391875 149.7325 96.78375 150.625 97.1875 C154.29790337 99.15998515 156.95243278 101.17011615 160 104 C160 104.66 160 105.32 160 106 C158.98679688 105.36771484 158.98679688 105.36771484 157.953125 104.72265625 C157.06109375 104.17480469 156.1690625 103.62695312 155.25 103.0625 C154.36828125 102.51722656 153.4865625 101.97195312 152.578125 101.41015625 C148.60403062 99.23644705 145.43428707 98.86143503 140.9375 98.875 C140.08027344 98.87242188 139.22304687 98.86984375 138.33984375 98.8671875 C135.84435799 98.90634865 135.84435799 98.90634865 133 100 C133.33 99.01 133.66 98.02 134 97 C132.37926122 95.37926122 130.420445 95.80192617 128.1875 95.6875 C123.33392857 95.23118132 123.33392857 95.23118132 120.5625 93.3125 C119 91 119 91 117.875 87.9375 C115.29695672 83.89856552 112.59078399 83.56766297 108.08203125 82.4453125 C107.39496094 82.29835938 106.70789063 82.15140625 106 82 C107 81 107 81 110.4375 80.6875 C119.6040226 80.86691592 126.44395296 85.71300995 133.359375 91.29296875 C136.34662218 93.22407381 138.46352749 93.79945315 142 94 C144.56338689 92.52006844 144.56338689 92.52006844 146 90 C146.18654682 86.54888382 144.75670082 84.3631011 142.75 81.6875 C134.45703871 72.58305562 119.15218558 64.5756187 107 63 C108.32 65.64 109.64 68.28 111 71 C110.28344238 70.57589844 109.56688477 70.15179688 108.82861328 69.71484375 C105.59671096 67.80539326 102.36092656 65.90262197 99.125 64 C97.43310547 62.99839844 97.43310547 62.99839844 95.70703125 61.9765625 C94.63066406 61.34492187 93.55429688 60.71328125 92.4453125 60.0625 C91.45031738 59.47597656 90.45532227 58.88945313 89.43017578 58.28515625 C87.16351167 56.84417074 87.16351167 56.84417074 85 57 Z M26 71 C27.55961362 71.96302356 29.12283225 72.92021004 30.6875 73.875 C31.55761719 74.40867187 32.42773438 74.94234375 33.32421875 75.4921875 C37.00784435 77.63048974 37.00784435 77.63048974 41 79 C43.56078564 77.7211104 43.56078564 77.7211104 45.8125 75.625 C46.60269531 74.95726563 47.39289063 74.28953125 48.20703125 73.6015625 C48.79871094 73.07304688 49.39039062 72.54453125 50 72 C47.40686906 69.31476332 45.34437255 68.76907235 41.7421875 68.63671875 C40.11970391 68.63804215 38.49716788 68.65546667 36.875 68.6875 C36.05128906 68.68427734 35.22757813 68.68105469 34.37890625 68.67773438 C29.6865861 68.47779461 29.6865861 68.47779461 26 71 Z M12 73 C14.30283254 75.54131358 16.67313793 77.07110295 19.6875 78.6875 C20.89986328 79.34298828 20.89986328 79.34298828 22.13671875 80.01171875 C22.75160156 80.33785156 23.36648437 80.66398437 24 81 C22.8905928 77.51329166 21.73662334 74.22515763 20 71 C17.11604263 71 14.70522185 72.05905327 12 73 Z M50.9375 77 C49.83728516 77.8353125 49.83728516 77.8353125 48.71484375 78.6875 C48.14894531 79.120625 47.58304687 79.55375 47 80 C52.42692531 85.42692531 63.77633535 84.57573531 71 85 C66.72219778 80.15182415 61.6727337 77.05697316 56 74 C54.04848373 74 52.41931253 75.87099998 50.9375 77 Z M-1.82421875 101.71484375 C-2.21222656 102.13894531 -2.60023437 102.56304687 -3 103 C-2.19175781 103.18175781 -1.38351563 103.36351563 -0.55078125 103.55078125 C0.51785156 103.80214844 1.58648437 104.05351563 2.6875 104.3125 C3.74324219 104.55613281 4.79898438 104.79976562 5.88671875 105.05078125 C9 106 9 106 11.70703125 107.66796875 C12.46371094 108.10753906 13.22039063 108.54710938 14 109 C17.68428077 107.77190641 18.49120529 106.37551018 20.8125 103.3125 C23.2309452 100.18327331 25.61903951 97.27238208 28.5 94.5625 C31.34916193 92.23877584 31.34916193 92.23877584 31 89 C19.54545971 89 6.51535153 93.87529053 -1.82421875 101.71484375 Z M35 94 C33.19936386 95.88795796 31.40969486 97.78456911 29.625 99.6875 C29.11710937 100.21794922 28.60921875 100.74839844 28.0859375 101.29492188 C25.22852543 104.35912035 23.25942429 106.9106645 22 111 C29.04342322 111.39868433 36.81937094 110.8651725 42.8125 106.7578125 C44.36308493 105.34181072 44.36308493 105.34181072 46 103 C46 102.34 46 101.68 46 101 C44.05098804 99.44303587 44.05098804 99.44303587 41.625 97.9375 C40.81289062 97.41027344 40.00078125 96.88304688 39.1640625 96.33984375 C37.06256202 94.993532 37.06256202 94.993532 35 94 Z M51 104 C41.43073171 112.69933481 33.69601773 123.1457726 31 136 C30.81566406 136.59039062 30.63132813 137.18078125 30.44140625 137.7890625 C29.78117334 141.09606981 29.89625828 144.39355828 29.9375 147.75 C29.94201172 148.44738281 29.94652344 149.14476562 29.95117188 149.86328125 C29.9628998 151.57555803 29.98083347 153.28779033 30 155 C41.54372115 153.53201234 51.08323326 144.96556511 58.2890625 136.22265625 C58.85367188 135.48917969 59.41828125 134.75570312 60 134 C59.05898437 133.61328125 58.11796875 133.2265625 57.1484375 132.828125 C55.89048667 132.30241421 54.63268191 131.7763538 53.375 131.25 C52.75753906 130.99734375 52.14007813 130.7446875 51.50390625 130.484375 C47.31059392 128.71876981 43.71525772 126.62925931 40 124 C43.52012805 121.99352701 47.07324594 121.18260409 51 120.25 C58.13069262 118.45901091 64.72347749 115.90886633 71 112 C71.33 111.34 71.66 110.68 72 110 C65.07 108.02 58.14 106.04 51 104 Z M12 112 C0.47003094 119.11903783 -9.61012586 126.678158 -16 139 C-15.67 139.66 -15.34 140.32 -15 141 C-14.34 140.67 -13.68 140.34 -13 140 C-11.45976004 139.93049459 -9.91665012 139.91547643 -8.375 139.9375 C-7.14910156 139.95103516 -7.14910156 139.95103516 -5.8984375 139.96484375 C-5.27195312 139.97644531 -4.64546875 139.98804688 -4 140 C-3.67 140.99 -3.34 141.98 -3 143 C-0.88966885 140.33166128 0.71125031 137.75699321 2.12109375 134.6640625 C2.49943359 133.84679687 2.87777344 133.02953125 3.26757812 132.1875 C4.04390067 130.48710738 4.819945 128.7865877 5.59570312 127.0859375 C7.75247571 122.42818754 10.01293478 118.17780876 13 114 C12.67 113.34 12.34 112.68 12 112 Z M13.25 120.8125 C12.0990575 123.1765981 11.01426832 125.57412114 10 128 C9.47921875 129.093125 8.9584375 130.18625 8.421875 131.3125 C7.21749823 133.85360263 6.08171901 136.4049145 5 139 C13.56399034 138.59219094 20.25060585 136.30663533 26.1875 129.875 C29.78402948 125.33148517 32.37646468 120.14473416 35 115 C22.2882615 113.02927752 22.2882615 113.02927752 13.25 120.8125 Z M171 128 C171 130.64 171 133.28 171 136 C174.42578949 132.82460444 174.42578949 132.82460444 177 129 C174.03 128.505 174.03 128.505 171 128 Z M160 129 C160.33 129.66 160.66 130.32 161 131 C161.33 130.34 161.66 129.68 162 129 C161.34 129 160.68 129 160 129 Z M183 132 C183.33 133.32 183.66 134.64 184 136 C184.33 134.68 184.66 133.36 185 132 C184.34 132 183.68 132 183 132 Z M64.08203125 137.171875 C61.41387909 144.14567344 62.3450505 151.17498657 65.0625 158 C67.49182214 163.28775532 70.4122429 168.24194902 73.41796875 173.21875 C75.41207436 176.7244369 76.74910878 180.17374451 78 184 C78.33 184 78.66 184 79 184 C79.08636719 183.443125 79.17273438 182.88625 79.26171875 182.3125 C80.60876207 174.99644822 83.06052378 169.48222437 88.8125 164.625 C92.55629411 162.71639908 95.8921071 161.84990888 100 161 C91.09620146 153.54414928 77.10881979 151.58243992 66 149 C66.74765625 148.55269531 67.4953125 148.10539063 68.265625 147.64453125 C69.25046875 147.03996094 70.2353125 146.43539062 71.25 145.8125 C72.22453125 145.22082031 73.1990625 144.62914062 74.203125 144.01953125 C77.06737409 141.95135139 78.93467302 139.84720076 81 137 C80.67 136.34 80.34 135.68 80 135 C77.73078464 134.86510609 75.4592933 134.76806005 73.1875 134.6875 C71.92292969 134.62949219 70.65835938 134.57148438 69.35546875 134.51171875 C65.89619443 134.64593736 65.89619443 134.64593736 64.08203125 137.171875 Z M123 135 C124.33250791 138.5875213 125.830717 141.8364623 128 145 C128.66 145 129.32 145 130 145 C129.90460938 145.83144531 129.80921875 146.66289062 129.7109375 147.51953125 C129.60007813 148.60621094 129.48921875 149.69289062 129.375 150.8125 C129.25898438 151.89144531 129.14296875 152.97039062 129.0234375 154.08203125 C128.72539844 157.19624332 128.72539844 157.19624332 131 160 C134.54518884 158.60240095 134.54518884 158.60240095 138 157 C137.89300781 157.68707031 137.78601563 158.37414062 137.67578125 159.08203125 C137.49595703 160.43361328 137.49595703 160.43361328 137.3125 161.8125 C137.12107422 163.15248047 137.12107422 163.15248047 136.92578125 164.51953125 C136.75108118 167.07024209 136.75108118 167.07024209 138.48046875 168.82421875 C138.98191406 169.21222656 139.48335937 169.60023438 140 170 C143.91402949 168.73058503 145.79072873 167.48832306 148 164 C147.38125 163.50242188 146.7625 163.00484375 146.125 162.4921875 C143.40498707 159.30217234 142.79351856 156.12932976 142 152.125 C140.88948133 146.58268924 139.57544865 142.56707698 136 138 C135.34 137.67 134.68 137.34 134 137 C134.99 141.62 135.98 146.24 137 151 C136.113125 149.453125 135.22625 147.90625 134.3125 146.3125 C130.02831729 139.11316279 130.02831729 139.11316279 123 135 Z M15.5 141.9375 C12.4890902 142.85152619 10.38976271 143.11445988 7.3125 143.25 C5.02901982 143.41164667 5.02901982 143.41164667 3 144 C0.36125803 147.25962244 -0.06301024 149.08137699 0.22265625 153.24609375 C1.09247287 157.44656497 2.5571638 160.68494018 4.5625 164.4375 C4.89185547 165.07365234 5.22121094 165.70980469 5.56054688 166.36523438 C6.36453248 167.91494576 7.18097666 169.45818322 8 171 C9.79375096 168.30937356 10.66741305 166.34825442 11.65625 163.32421875 C11.95660156 162.41349609 12.25695313 161.50277344 12.56640625 160.56445312 C12.87449219 159.61505859 13.18257812 158.66566406 13.5 157.6875 C13.80808594 156.74970703 14.11617187 155.81191406 14.43359375 154.84570312 C15.02782545 153.03622935 15.62035088 151.2261941 16.2109375 149.41552734 C17.12860474 146.60630714 18.06122838 143.80223328 19 141 C17.71105467 140.94147943 17.71105467 140.94147943 15.5 141.9375 Z M24 142 C15.30334681 159.34144563 15.30334681 159.34144563 13 178 C14.58472337 180.17418122 16.07972128 181.96641547 17.9375 183.875 C18.43169434 184.39803711 18.92588867 184.92107422 19.43505859 185.45996094 C23.58251045 189.76309193 28.00183902 193.69888903 33 197 C33.33 197 33.66 197 34 197 C34.10489746 196.10244995 34.10489746 196.10244995 34.21191406 195.18676758 C35.57947733 183.73947153 37.04934706 172.87629148 41 162 C41.67016827 160.00117061 42.33774996 158.00146679 43 156 C42.14148438 156.28617188 41.28296875 156.57234375 40.3984375 156.8671875 C32.69921875 159.43359375 32.69921875 159.43359375 25 162 C25 155.4 25 148.8 25 142 C24.67 142 24.34 142 24 142 Z M51 160 C50.18025737 162.03876949 49.3695193 164.08116075 48.5625 166.125 C48.11003906 167.26195312 47.65757813 168.39890625 47.19140625 169.5703125 C46.07795177 172.77560112 45.30647344 175.6240035 45 179 C49.98605578 189.1888966 60.88347128 194.60416477 70.31787109 200.02148438 C71.84000001 200.90692599 73.33772226 201.83400064 74.83203125 202.765625 C76.87387956 204.16492978 76.87387956 204.16492978 79 204 C78.29697979 195.0950774 73.26318657 187.14097805 67 181 C65.84228477 180.03087187 64.67541583 179.07258193 63.5 178.125 C57.81552815 173.41104774 53.8359933 167.16037387 52 160 C51.67 160 51.34 160 51 160 Z M160.1875 169.5625 C158 171 158 171 155.875 170.75 C154 170 154 170 152 169 C151.34 171.31 150.68 173.62 150 176 C153.43197297 176.87794657 155.40335115 177.23052342 158.75 175.9375 C161.53586149 173.53856372 162.13859136 171.52394445 163 168 C161.72739771 167.89117673 161.72739771 167.89117673 160.1875 169.5625 Z " fill="#000000" transform="translate(42,16)"/>
<path d="M0 0 C0.680625 0.7425 1.36125 1.485 2.0625 2.25 C7.61422924 7.73952499 13.478124 9.70371298 21 11 C20.67 11.66 20.34 12.32 20 13 C15.66826747 14.21288511 11.94083574 14.31952912 7.6875 12.875 C3.56630679 9.99974892 1.37295614 7.64722294 0.25 2.6875 C0.1675 1.800625 0.085 0.91375 0 0 Z " fill="#000000" transform="translate(151,104)"/>
<path d="M0 0 C3.97766921 0.56823846 6.82631355 1.49445807 10 4 C11.875 7.5 11.875 7.5 13 11 C12.67 11.99 12.34 12.98 12 14 C11.54109375 13.59007812 11.0821875 13.18015625 10.609375 12.7578125 C9.68898437 11.94957031 9.68898437 11.94957031 8.75 11.125 C8.14671875 10.59132812 7.5434375 10.05765625 6.921875 9.5078125 C5.05488081 7.92182611 5.05488081 7.92182611 2.8125 7 C2.214375 6.67 1.61625 6.34 1 6 C0.25 2.875 0.25 2.875 0 0 Z " fill="#000000" transform="translate(211,120)"/>
<path d="" fill="#000000" transform="translate(0,0)"/>
</svg>
