<?xml version="1.0" encoding="UTF-8"?>
<svg version="1.1" xmlns="http://www.w3.org/2000/svg" width="256" height="256">
<path d="M0 0 C3.04457539 2.83895047 5.178251 5.68442889 7.3125 9.25 C18.47138787 27.00063597 35.43895382 36.57279911 55 43 C55.33 42.67 55.66 42.34 56 42 C55.61328125 41.41734375 55.2265625 40.8346875 54.828125 40.234375 C48.29482155 29.94927353 44.78581122 19.38094425 44.9375 7.1875 C44.94201172 6.49462891 44.94652344 5.80175781 44.95117188 5.08789062 C44.96286844 3.39188932 44.98080076 1.69593297 45 0 C47.50734048 2.28006693 48.99932341 4.60110669 50.625 7.5625 C53.55124589 12.57682085 57.07142639 16.65901129 61.046875 20.87109375 C63.71288677 23.77704658 65.20694571 26.16690425 66 30 C67.093125 30.12375 68.18625 30.2475 69.3125 30.375 C73 31 73 31 76 33 C77.96713853 33.62269133 79.94870988 34.20037073 81.9375 34.75 C89.82949372 37.10080664 97.1415665 40.427711 104 45 C102.68 41.37 101.36 37.74 100 34 C111.17445322 36.64658103 121.68796238 46.55178114 128.48046875 55.51953125 C130.44042565 57.42910365 132.46050711 58.00925614 135 59 C138.51232829 61.44544359 141.73035619 64.24152585 145 67 C146.49660156 68.20462891 146.49660156 68.20462891 148.0234375 69.43359375 C155.71679463 75.9053023 155.71679463 75.9053023 156.609375 79.35546875 C156.65578125 80.10441406 156.7021875 80.85335937 156.75 81.625 C156.82171093 83.88878679 156.82171093 83.88878679 158 86 C162.49383323 89.45490523 167.85284766 91.7019405 173 94 C172.67 93.34 172.34 92.68 172 92 C171.95977609 89.6670134 171.95679753 87.33293334 172 85 C179.90178695 87.67102657 185.31283049 94.06497207 189 101.375 C192.77811362 109.63962355 193.46093067 119.14870774 191.24609375 128.01953125 C189.5326794 132.17876059 189.5326794 132.17876059 188 134 C187.36449219 134.15726563 186.72898438 134.31453125 186.07421875 134.4765625 C182.56153586 135.36300225 181.0355389 138.33275653 178.87890625 141.08984375 C177 143 177 143 172 145 C172.33 141.37 172.66 137.74 173 134 C171.9275 135.258125 170.855 136.51625 169.75 137.8125 C167.37043165 140.60391672 165.07968306 142.98293485 162 145 C161.34 145 160.68 145 160 145 C160.144375 144.21625 160.28875 143.4325 160.4375 142.625 C161.14003185 138.09757251 161.57637495 133.56072928 162 129 C161.16855469 129.75796875 161.16855469 129.75796875 160.3203125 130.53125 C159.59585938 131.1809375 158.87140625 131.830625 158.125 132.5 C157.40570313 133.1496875 156.68640625 133.799375 155.9453125 134.46875 C154 136 154 136 152 136 C151.67 132.7 151.34 129.4 151 126 C149.88625 126.99 148.7725 127.98 147.625 129 C144.25 132 144.25 132 142 132 C141.67 129.69 141.34 127.38 141 125 C138.25296368 129.61502102 137.81834703 131.81557492 139 137 C139.79381661 139.6067221 140.61490552 142.17563948 141.5 144.75 C141.83837891 145.75740234 141.83837891 145.75740234 142.18359375 146.78515625 C143.42620334 150.45976887 143.42620334 150.45976887 145 154 C145.5775 153.71125 146.155 153.4225 146.75 153.125 C148.83333333 152.08333333 150.91666667 151.04166667 153 150 C153.33 153.96 153.66 157.92 154 162 C157.3 158.7 160.6 155.4 164 152 C165.75220826 157.25662478 163.965214 162.64219531 163 168 C162.81566406 169.14339844 162.63132813 170.28679687 162.44140625 171.46484375 C160.77282581 180.34666633 157.92030406 185.27146509 150.7421875 190.7109375 C144.55674599 194.78815778 138.22285472 196.58521402 131 198 C132.875 192.25 132.875 192.25 134 190 C132.93072266 190.14308594 132.93072266 190.14308594 131.83984375 190.2890625 C125.94655793 190.97119249 121.56832045 191.10358772 116 189 C116.38414062 188.56429687 116.76828125 188.12859375 117.1640625 187.6796875 C118.65208241 185.84154526 119.90612835 184.09836079 121 182 C120.31074626 175.52101483 115.01684102 169.91845853 110.4375 165.5625 C105.80396726 162.59228671 100.40494383 162.29327622 95 163 C89.18540424 164.84674094 85.86465484 167.4998627 83 173 C78.36715141 188.62021249 87.48899729 205.20362776 94 219 C88.99728191 217.30922052 84.83840443 214.47277672 80.4375 211.625 C72.63450553 206.62787683 64.74773381 201.80014432 56.76342773 197.09814453 C51.99678755 194.27219734 47.46233141 191.28709172 43 188 C43 193.28 43 198.56 43 204 C31.21227136 200.07075712 22.70279726 192.55591461 14 184 C13.27941406 183.31550781 12.55882812 182.63101563 11.81640625 181.92578125 C3.02703806 172.92419492 -4.80626903 159.10927305 -7.125 146.6875 C-7.29257812 145.80449219 -7.46015625 144.92148438 -7.6328125 144.01171875 C-7.75398438 143.34785156 -7.87515625 142.68398437 -8 142 C-13.50735793 142.34420987 -16.77218966 143.80075236 -21.30078125 146.94140625 C-23 148 -23 148 -25 148 C-24.50233061 142.61549369 -23.11102067 138.4492115 -20.5 133.6875 C-20.14397705 133.03450928 -19.7879541 132.38151855 -19.42114258 131.70874023 C-13.6093054 121.42625908 -5.75048623 114.52462443 4 108 C3.01592689 106.79504091 3.01592689 106.79504091 1.14233398 106.88647461 C0.35157471 106.89171143 -0.43918457 106.89694824 -1.25390625 106.90234375 C-2.53491211 106.90717773 -2.53491211 106.90717773 -3.84179688 106.91210938 C-5.18854492 106.92467773 -5.18854492 106.92467773 -6.5625 106.9375 C-7.91504883 106.94426758 -7.91504883 106.94426758 -9.29492188 106.95117188 C-11.53001314 106.96299775 -13.76497437 106.9794778 -16 107 C-9.93184467 94.49358176 4.14549357 88.29795261 16.61328125 83.8125 C17.79470703 83.4103125 17.79470703 83.4103125 19 83 C12.12506335 78.05004561 5.12434632 76.04249718 -3 74 C4.72467727 64.92956014 20.97470595 63.12505668 32 61 C31.278125 60.48050781 30.55625 59.96101563 29.8125 59.42578125 C28.884375 58.72839844 27.95625 58.03101563 27 57.3125 C26.071875 56.62800781 25.14375 55.94351563 24.1875 55.23828125 C22 53 22 53 21.6875 50.23046875 C21.790625 49.49441406 21.89375 48.75835937 22 48 C21.24460938 48.07476562 20.48921875 48.14953125 19.7109375 48.2265625 C17 48 17 48 15.2265625 46.5234375 C4.54543664 32.19509793 -0.78026621 17.91722411 0 0 Z M7 19 C7.5611257 23.48900562 8.7126712 26.96734918 10.75 31 C11.23984375 31.99 11.7296875 32.98 12.234375 34 C14.34176719 37.58070177 15.95068331 40.13254269 19 43 C21.81687098 43.69933111 24.43285985 43.57572559 27.3125 43.375 C28.42334961 43.33439453 28.42334961 43.33439453 29.55664062 43.29296875 C31.37235998 43.22268284 33.18656801 43.11507089 35 43 C32.09399739 44.25664978 30.20395416 45 27 45 C26.24241756 47.69802289 26.24241756 47.69802289 27 51 C33.34421166 58.40158027 44.33918602 62.85296529 53 67 C53.66 67 54.32 67 55 67 C55.50704342 62.03097444 55.7005436 58.3348671 52.5625 54.25 C51.88380859 53.48429687 51.88380859 53.48429687 51.19140625 52.703125 C50 51 50 51 49.80078125 48.5078125 C49.19810886 45.62974245 49.19810886 45.62974245 45.7890625 44.2265625 C44.40719559 43.67697544 43.01863423 43.14402384 41.625 42.625 C31.08423738 38.34552057 22.60538708 32.94286443 14.2890625 25.11328125 C11.94603424 22.95017837 9.51039351 20.96484863 7 19 Z M51 19 C52.78315644 25.94416209 55.08080219 31.98045861 59 38 C59.44601563 38.73734375 59.89203125 39.4746875 60.3515625 40.234375 C64.02123559 45.39073616 67.82176314 46.87623514 73.9375 48 C76.29000614 48.38537656 78.63321255 48.70757838 81 49 C80.47097528 45.21192173 79.62711253 43.08424172 77.0625 40.25 C76.53785156 39.65703125 76.01320313 39.0640625 75.47265625 38.453125 C73.28063766 36.29017827 72.18052184 36.01152267 69.0625 35.8125 C65.82568546 35.7530642 65.82568546 35.7530642 63 38 C62.814375 36.8553125 62.814375 36.8553125 62.625 35.6875 C62.11897208 32.79732864 62.11897208 32.79732864 60 30 C59.8659375 29.35546875 59.731875 28.7109375 59.59375 28.046875 C58.81810741 25.37294922 57.49644758 24.16462595 55.5 22.25 C54.8709375 21.63640625 54.241875 21.0228125 53.59375 20.390625 C52.22694382 18.89042367 52.22694382 18.89042367 51 19 Z M84 41 C84.71525083 46.15347395 85.33100827 50.5782663 89.42578125 54.06640625 C91.90647877 55.52254411 94.37249164 56.83167077 97 58 C97 57.34 97 56.68 97 56 C103.35450323 57.24702151 109.68327435 58.57364259 116 60 C117.2077558 56.37673261 116.54311128 55.35853631 115 52 C116.58138002 53.58138002 117.7905419 55.10693515 119 57 C118.85884766 58.17369141 118.85884766 58.17369141 118.71484375 59.37109375 C118.72664211 62.28564612 118.72664211 62.28564612 121.625 64.23828125 C122.73875 64.92277344 123.8525 65.60726562 125 66.3125 C126.11375 67.00988281 127.2275 67.70726563 128.375 68.42578125 C129.24125 68.94527344 130.1075 69.46476562 131 70 C131.66 69.67 132.32 69.34 133 69 C122.72992051 54.57794868 122.72992051 54.57794868 109 44 C109.33 47.96 109.66 51.92 110 56 C109.00419922 55.16855469 109.00419922 55.16855469 107.98828125 54.3203125 C107.10527344 53.59585938 106.22226563 52.87140625 105.3125 52.125 C104.44238281 51.40570313 103.57226562 50.68640625 102.67578125 49.9453125 C100.1522354 48.11067624 97.93661514 47.00532771 95 46 C94.67 47.65 94.34 49.3 94 51 C93.74476563 50.16855469 93.74476563 50.16855469 93.484375 49.3203125 C92.10035613 44.83116624 92.10035613 44.83116624 89 41.5 C86.85852089 40.87873219 86.85852089 40.87873219 84 41 Z M54 48 C53.67 48.99 53.34 49.98 53 51 C53.639375 51.99 54.27875 52.98 54.9375 54 C57.12248221 57.41902532 57.03224838 59.57146583 56.625 63.5625 C56.39546282 66.38800149 56.39546282 66.38800149 57 69 C59.94854417 71.79613433 63.36959391 73.24848829 67 75 C68.2924963 75.97183882 69.5666008 76.9691011 70.8125 78 C73.782123 80.34853253 73.782123 80.34853253 76.8125 79.5625 C79.27429052 77.8040782 79.88329494 76.76962533 81 74 C81.82129657 68.38462343 81.49123197 62.73927053 78.64453125 57.75 C72.83934463 51.57250925 61.96224179 49.92786563 54 48 Z M83 56 C83.33 56.9075 83.66 57.815 84 58.75 C85.83163862 65.22003283 86.01305166 72.25028835 83.6875 78.5625 C82.25131709 80.63698643 80.91185379 82.36126818 79 84 C81.62526741 85.40579492 81.62526741 85.40579492 85 86 C87.65010886 84.97381014 89.62477296 83.61515439 92 82 C91.79375 81.0925 91.5875 80.185 91.375 79.25 C91 76 91 76 92.140625 74.2421875 C93.27386215 71.28546874 92.44201298 69.60219348 91.23828125 66.76953125 C90.95339844 66.14433594 90.66851562 65.51914063 90.375 64.875 C90.11332031 64.24207031 89.85164063 63.60914063 89.58203125 62.95703125 C88.33396361 60.11722517 87.4280172 58.27677437 84.7890625 56.5703125 C84.19867188 56.38210937 83.60828125 56.19390625 83 56 Z M93 61 C93.15597656 61.54527344 93.31195313 62.09054688 93.47265625 62.65234375 C94.56059351 66.86720003 95.14240586 70.13428445 94.3125 74.4375 C93.40890974 80.12007872 96.13565799 84.25252656 99 89 C97.68 87.35 96.36 85.7 95 84 C91.75791433 84.35049575 90.38472296 84.56221181 88.1875 87.0625 C87.795625 87.701875 87.40375 88.34125 87 89 C88.32 90.65 89.64 92.3 91 94 C89.88625 93.38125 88.7725 92.7625 87.625 92.125 C77.47211557 87.13669046 66.0820635 87.45873465 55 87 C55.61277612 89.96175123 56.25372522 91.38058783 58 94 C62.19778672 93.4341442 62.19778672 93.4341442 66.125 91.9375 C68 91 68 91 72 91 C71.13375 91.391875 70.2675 91.78375 69.375 92.1875 C65.74128495 94.13893957 63.08299117 96.28403159 60 99 C63.65514396 101.43676264 67.33633509 102.48744721 71.50390625 103.8046875 C74.34613214 105.16575342 74.96890187 106.08363962 76 109 C68.68164616 116.15202762 59.82884296 119.54278926 50 122 C58.07518958 127.38345972 68.83274769 129.36462585 78.359375 127.55078125 C80.25112725 127.07784319 82.12764453 126.54468523 84 126 C83.09871121 133.5832574 80.95463392 138.23833384 76 144 C78.95670218 145.00486895 81.91561577 146.00306024 84.875 147 C85.71675781 147.28617187 86.55851562 147.57234375 87.42578125 147.8671875 C88.23144531 148.13789063 89.03710938 148.40859375 89.8671875 148.6875 C90.61081543 148.93886719 91.35444336 149.19023437 92.12060547 149.44921875 C93.99347314 150.09374494 93.99347314 150.09374494 96 150 C97.081664 147.11556267 97.83885435 145.03057784 98 142 C96.98924939 139.78328944 95.72137582 138.02398197 94.26953125 136.0703125 C92.83024587 133.72317019 92.67229393 132.15374354 92.4375 129.4375 C91.85265738 125.89150685 91.14962251 125.11415799 88.21484375 122.875 C85.19074861 121.12067113 82.15664094 119.50109378 79 118 C88.88997105 120.38644313 88.88997105 120.38644313 93 123 C94.68334633 125.89715392 95.45141156 128.70846935 96 132 C97.32 132 98.64 132 100 132 C102.26877535 129.58119071 102.26877535 129.58119071 104 127 C102.97895407 129.55261482 101.9926472 132.01365521 100.6875 134.4375 C99.6755794 137.16893886 99.6755794 137.16893886 101.375 140.3125 C101.91125 141.199375 102.4475 142.08625 103 143 C104.98 143 106.96 143 109 143 C106.69 143.99 104.38 144.98 102 146 C101.19736642 150.07669204 101.19736642 150.07669204 102 154 C104.50170285 156.34393781 107.17227619 158.11329875 110.03515625 159.99609375 C116.45976589 164.33841884 121.97203443 169.80858177 125 177 C125.29185778 180.03532092 125.24787751 182.96350056 125 186 C130.27315333 185.5547115 135.01770224 184.91626837 140 183 C139.67 185.64 139.34 188.28 139 191 C140.98 190.01 142.96 189.02 145 188 C144.34414811 184.39007621 144.34414811 184.39007621 143 181 C140.9733568 180.53774805 140.9733568 180.53774805 138.625 180.25 C134.26804331 179.3980037 134.26804331 179.3980037 131.9375 175.9375 C131 173 131 173 131 172 C133 173 133 173 133.7734375 174.984375 C134.86182231 177.26943514 134.86182231 177.26943514 137.6015625 177.828125 C139.09816406 178.03695312 139.09816406 178.03695312 140.625 178.25 C141.62789063 178.39953125 142.63078125 178.5490625 143.6640625 178.703125 C144.43492187 178.80109375 145.20578125 178.8990625 146 179 C146.495 182.465 146.495 182.465 147 186 C151.2742558 184.4169423 153.26531794 181.49431596 156 178 C155.67 177.34 155.34 176.68 155 176 C153.2675 176.0928125 153.2675 176.0928125 151.5 176.1875 C143.92698011 176.13416887 138.54924282 173.31724819 133.06640625 168.19921875 C128.92551587 163.79218419 125.43715848 158.96545566 122 154 C121.31808594 153.02289063 120.63617188 152.04578125 119.93359375 151.0390625 C115.13188392 143.72843579 111.98982828 136.25806871 108.86572266 128.12133789 C106.13843696 121.10340159 103.31616334 114.96709351 97.625 109.875 C93.78973661 108.59657887 90.95667444 109.26231493 87 110 C89.50171687 107.38951284 91.68007534 106.67664259 95.1875 106.4375 C100.17175977 106.56844935 102.96410084 108.72618906 106.890625 111.58984375 C111.68803816 114.79700329 116.0756093 114.06205263 121.4375 113 C122.37335938 112.80792969 123.30921875 112.61585938 124.2734375 112.41796875 C128.66989163 111.74401375 132.95949947 111.97974974 137 114 C137.350625 113.0925 137.70125 112.185 138.0625 111.25 C140.54761219 107.08142471 142.70195737 106.10847374 147 104 C146.38125 104.86625 145.7625 105.7325 145.125 106.625 C143.15345216 109.75628186 142.01033009 112.46384469 141 116 C145.09947304 119.13706517 145.09947304 119.13706517 150 120 C151.06795656 114.42289352 150.82622671 109.60563042 150 104 C152.41001379 109.76307645 153.43781633 114.79419604 154 121 C154.55349121 121.00410889 155.10698242 121.00821777 155.67724609 121.01245117 C175.67983489 121.27263053 175.67983489 121.27263053 184 127 C184.66 127.33 185.32 127.66 186 128 C188.7942189 118.04559516 188.2448547 110.54769751 184 101 C182.1769377 98.29041115 180.35278362 96.30049954 178 94 C177.67 94 177.34 94 177 94 C177 95.98 177 97.96 177 100 C176.39671875 99.77183594 175.7934375 99.54367188 175.171875 99.30859375 C174.37265625 99.02113281 173.5734375 98.73367187 172.75 98.4375 C171.56664062 98.00244141 171.56664062 98.00244141 170.359375 97.55859375 C167.72127447 96.93401035 166.44600032 96.81917226 164 98 C162.8624787 100.08034294 162.8624787 100.08034294 162.25 102.5625 C161.88648438 103.80193359 161.88648438 103.80193359 161.515625 105.06640625 C161.34546875 105.70449219 161.1753125 106.34257813 161 107 C160.67 106.67 160.34 106.34 160 106 C160.41740567 103.96551221 160.90895178 101.94598322 161.4375 99.9375 C161.72496094 98.83277344 162.01242188 97.72804687 162.30859375 96.58984375 C162.53675781 95.73519531 162.76492187 94.88054687 163 94 C162.07316406 93.51789063 161.14632812 93.03578125 160.19140625 92.5390625 C158.98161257 91.9013418 157.77198574 91.26330452 156.5625 90.625 C155.95083984 90.30789062 155.33917969 89.99078125 154.70898438 89.6640625 C150.11328125 87.2265625 150.11328125 87.2265625 149 85 C150.32 85 151.64 85 153 85 C152.72148133 81.28820304 152.3527947 79.40963385 149.890625 76.55078125 C149.01921875 75.81214844 148.1478125 75.07351562 147.25 74.3125 C146.38890625 73.56613281 145.5278125 72.81976563 144.640625 72.05078125 C142.18111616 70.14065974 139.70661761 68.53342545 137 67 C136.58228196 70.33200185 136.58228196 70.33200185 137 74 C139.28536927 76.19504488 139.28536927 76.19504488 142 78 C145.13722452 82.00266576 145.37188362 84.97957107 145 90 C144.505 91.485 144.505 91.485 144 93 C144.68707031 93.45890625 145.37414062 93.9178125 146.08203125 94.390625 C146.98308594 95.00421875 147.88414062 95.6178125 148.8125 96.25 C149.70582031 96.85328125 150.59914063 97.4565625 151.51953125 98.078125 C153.85635188 99.88870098 155.37157462 101.55465691 157 104 C156.32453125 103.57847656 155.6490625 103.15695313 154.953125 102.72265625 C154.06109375 102.17480469 153.1690625 101.62695312 152.25 101.0625 C151.36828125 100.51722656 150.4865625 99.97195312 149.578125 99.41015625 C145.41619269 97.13370539 142.09087591 96.86228874 137.375 96.875 C136.41335937 96.87242188 135.45171875 96.86984375 134.4609375 96.8671875 C131.99525231 96.83638917 131.99525231 96.83638917 130 98 C130.33 96.68 130.66 95.36 131 94 C130.26394531 93.98582031 129.52789062 93.97164062 128.76953125 93.95703125 C120.77047054 93.56605999 120.77047054 93.56605999 116.9375 90.75 C115 88 115 88 114.23046875 85.44140625 C113.20388379 82.76048004 113.20388379 82.76048004 110.3984375 81.85546875 C109.40070313 81.63503906 108.40296875 81.41460937 107.375 81.1875 C106.37210938 80.95417969 105.36921875 80.72085938 104.3359375 80.48046875 C103.17964844 80.24263672 103.17964844 80.24263672 102 80 C104.04159095 79.9727384 106.08328963 79.95348655 108.125 79.9375 C109.26195312 79.92589844 110.39890625 79.91429688 111.5703125 79.90234375 C115 80 115 80 118.25 80.6875 C120.96951609 81.30934043 120.96951609 81.30934043 122.6796875 79.78515625 C123.27136719 78.93244141 123.27136719 78.93244141 123.875 78.0625 C124.926875 76.5465625 124.926875 76.5465625 126 75 C125.34 78.3 124.68 81.6 124 85 C129.13462038 89.23380979 132.3131927 91.72138303 139 92 C141.18322765 89.72944324 141.96195931 88.41844764 142.25 85.25 C138.58438765 75.7194079 126.80607528 70.26318467 118 66 C113.74280901 64.12968139 109.39416051 62.51824815 105 61 C104.67 61.66 104.34 62.32 104 63 C105.39092892 65.62387135 105.39092892 65.62387135 107 68 C102.33333333 65.66666667 97.66666667 63.33333333 93 61 Z M24 68 C27.54279845 72.34797991 32.6747003 75.34437798 38 77 C40.15813868 76.34803216 40.15813868 76.34803216 42 75 C43.0725 74.29875 44.145 73.5975 45.25 72.875 C46.1575 72.25625 47.065 71.6375 48 71 C45.39350559 68.27502857 44.06335234 67.04993644 40.171875 66.8671875 C38.47804688 66.87105469 38.47804688 66.87105469 36.75 66.875 C35.07164063 66.87113281 35.07164063 66.87113281 33.359375 66.8671875 C30.15392456 66.99391461 27.14755311 67.3991035 24 68 Z M11 71 C11 71.66 11 72.32 11 73 C12.43294498 73.84114171 13.87154405 74.67265687 15.3125 75.5 C16.11300781 75.9640625 16.91351563 76.428125 17.73828125 76.90625 C20.0314118 78.21767886 20.0314118 78.21767886 23 78 C21.68 75.36 20.36 72.72 19 70 C15.95613276 69.91773332 13.92824652 70.02391783 11 71 Z M48.3125 75.5 C47.37857422 76.19609375 47.37857422 76.19609375 46.42578125 76.90625 C45.95527344 77.2671875 45.48476562 77.628125 45 78 C45.33 78.66 45.66 79.32 46 80 C48.36872661 80.65117579 50.65458485 81.17515074 53.0625 81.625 C53.7419165 81.75688721 54.42133301 81.88877441 55.12133789 82.0246582 C59.84936891 82.89883819 64.2131865 83.29307021 69 83 C65.00340086 78.48771065 60.53271767 75.43481021 55 73 C51.60406522 73 50.93380119 73.52165948 48.3125 75.5 Z M29 78 C33.45035918 88.51903078 44.00456765 94.53775341 54 99 C54.66 99 55.32 99 56 99 C54.98339559 96.26298813 53.91603244 93.86436009 52.375 91.375 C51 89 51 89 51 86 C49.99839844 85.67386719 48.99679688 85.34773438 47.96484375 85.01171875 C46.6223418 84.57047685 45.27989693 84.12906129 43.9375 83.6875 C43.28072266 83.47416016 42.62394531 83.26082031 41.94726562 83.04101562 C37.51750256 81.5789756 33.26472394 79.89111946 29 78 Z M19.4375 88.3125 C17.73400391 88.70888672 17.73400391 88.70888672 15.99609375 89.11328125 C12.85707892 89.88167151 12.85707892 89.88167151 10 92 C10 92.99 10 93.98 10 95 C11.32 95 12.64 95 14 95 C14.0825 95.78375 14.165 96.5675 14.25 97.375 C14.71229528 100.15242111 14.71229528 100.15242111 17.046875 101.1640625 C17.69140625 101.43992187 18.3359375 101.71578125 19 102 C23.04165813 97.52692892 26.80173015 93.11723176 30 88 C26.19102829 86.60556073 23.3129737 87.38220995 19.4375 88.3125 Z M31.078125 94.43359375 C30.47484375 95.09488281 29.8715625 95.75617188 29.25 96.4375 C28.63640625 97.09621094 28.0228125 97.75492187 27.390625 98.43359375 C26.70226562 99.20896484 26.70226562 99.20896484 26 100 C27.32 100.33 28.64 100.66 30 101 C30 100.34 30 99.68 30 99 C31.4540625 98.5978125 31.4540625 98.5978125 32.9375 98.1875 C34.4534375 97.5996875 34.4534375 97.5996875 36 97 C36.33 96.01 36.66 95.02 37 94 C34.29122208 92.90330452 33.4910428 92.63371401 31.078125 94.43359375 Z M0.375 96.9375 C-0.44226563 97.48277344 -1.25953125 98.02804688 -2.1015625 98.58984375 C-2.72804688 99.05519531 -3.35453125 99.52054687 -4 100 C-4 100.33 -4 100.66 -4 101 C-2.948125 101.14695312 -2.948125 101.14695312 -1.875 101.296875 C4.48801593 102.29974164 9.39368706 103.82661531 15 107 C15.66 105.68 16.32 104.36 17 103 C16.360625 102.731875 15.72125 102.46375 15.0625 102.1875 C13 101 13 101 12 98 C11.34 97.835 10.68 97.67 10 97.5 C9.34 97.335 8.68 97.17 8 97 C7.67 96.01 7.34 95.02 7 94 C4.13947209 94 2.72701334 95.35082433 0.375 96.9375 Z M37.9921875 97.7421875 C37.29351562 98.11601563 36.59484375 98.48984375 35.875 98.875 C35.17117187 99.24367188 34.46734375 99.61234375 33.7421875 99.9921875 C32.03317259 100.88082597 32.03317259 100.88082597 31 102 C29.88625 102.12375 28.7725 102.2475 27.625 102.375 C24.09612157 102.70301535 24.09612157 102.70301535 22.0625 104.4375 C20.81256333 105.96072099 20.81256333 105.96072099 21 108 C32.6547602 108.5364915 32.6547602 108.5364915 42.4375 102.8125 C43.2109375 101.9153125 43.2109375 101.9153125 44 101 C43.67 100.01 43.34 99.02 43 98 C40.15589489 96.7044432 40.15589489 96.7044432 37.9921875 97.7421875 Z M49 102 C41.39908052 108.89018415 34.63378842 116.87771047 32 127 C32.97751635 128.34990354 33.98199424 129.68036291 35 131 C35.57097925 133.98466428 35.81219353 136.96919217 36 140 C35.3503125 138.329375 35.3503125 138.329375 34.6875 136.625 C33.30088881 132.82487666 33.30088881 132.82487666 30 131 C28.65504172 138.09705662 27.75908465 144.7725395 28 152 C32.75809749 151.40523781 36.94710294 149.5093872 41 147 C42.69834931 143.60330138 41.89986581 139.77623455 41.7421875 136.04296875 C42.03498305 132.58709402 43.13493686 130.86740991 45 128 C44.25471355 124.83253258 43.09027244 124.06018162 40.375 122.25 C39.59125 121.8375 38.8075 121.425 38 121 C38.886875 120.71125 39.77375 120.4225 40.6875 120.125 C42.3271875 119.568125 42.3271875 119.568125 44 119 C44.86625 118.79375 45.7325 118.5875 46.625 118.375 C50.33011088 116.22993581 51.4021347 112.85107627 53 109 C53.4125 108.01 53.825 107.02 54.25 106 C54.4975 105.34 54.745 104.68 55 104 C53.02 103.34 51.04 102.68 49 102 Z M58 105 C57.20046862 108.28696233 56.90341064 109.71023192 58 113 C57.01 113.33 56.02 113.66 55 114 C58.56480762 115.18826921 59.19969907 114.76813843 62.5 113.25 C63.2734375 112.90453125 64.046875 112.5590625 64.84375 112.203125 C66.96641798 111.01873779 68.38573585 109.8005254 70 108 C68.56445975 107.49440092 67.1264798 106.9957251 65.6875 106.5 C64.88699219 106.2215625 64.08648437 105.943125 63.26171875 105.65625 C60.91230578 104.86066893 60.91230578 104.86066893 58 105 Z M-6.44140625 122.359375 C-8.11314985 124.11910511 -9.03248813 125.78579374 -10 128 C-7.55519921 127.81171228 -7.55519921 127.81171228 -5 127 C-3.63979849 125.03241727 -3.63979849 125.03241727 -3 123 C-0.69 123.66 1.62 124.32 4 125 C5.31315613 122.70870707 6.62555193 120.4169845 7.9375 118.125 C8.31068359 117.47402344 8.68386719 116.82304687 9.06835938 116.15234375 C11.10133078 112.61253166 11.10133078 112.61253166 13 109 C6.54601106 109 -1.63460554 118.24211535 -6.44140625 122.359375 Z M14.484375 114.8671875 C12.85727226 117.72345033 12.85727226 117.72345033 13 120 C13.74765625 120.04898438 14.4953125 120.09796875 15.265625 120.1484375 C16.25046875 120.22320312 17.2353125 120.29796875 18.25 120.375 C19.22453125 120.44460937 20.1990625 120.51421875 21.203125 120.5859375 C24 121 24 121 28 123 C29.65 119.7 31.3 116.4 33 113 C30.41638953 112.6695382 27.84083445 112.38497993 25.25 112.125 C24.52039063 112.02703125 23.79078125 111.9290625 23.0390625 111.828125 C18.69681499 111.43337523 17.42319544 111.51766233 14.484375 114.8671875 Z M12 120 C9.36 125.28 6.72 130.56 4 136 C11.64570778 135.75336427 16.88756565 133.64498792 23 129 C23.66 128.01 24.32 127.02 25 126 C21.2028891 122.53307266 16.82275859 121.48938133 12 120 Z M167 125 C167 127.64 167 130.28 167 133 C170.42578949 129.82460444 170.42578949 129.82460444 173 126 C170.03 125.505 170.03 125.505 167 125 Z M155 126 C155.66 126.66 156.32 127.32 157 128 C157.33 127.34 157.66 126.68 158 126 C157.01 126 156.02 126 155 126 Z M-2 127 C-2.66 128.32 -3.32 129.64 -4 131 C-6.64 130.67 -9.28 130.34 -12 130 C-13.98 132.97 -13.98 132.97 -16 136 C-13.43353059 136.71861144 -11.03770184 137.11613943 -8.375 137.4375 C-5 138 -5 138 -3 140 C-1.35 136.04 0.3 132.08 2 128 C0.68 127.67 -0.64 127.34 -2 127 Z M47 128 C44.32950694 130.74266854 43.01318001 132.73471896 42.97265625 136.625 C43.2231397 139.10866692 43.55354432 141.54449376 44 144 C47.86715038 141.87753203 50.74405677 139.47253855 53.8125 136.3125 C54.60269531 135.50425781 55.39289063 134.69601563 56.20703125 133.86328125 C56.79871094 133.24839844 57.39039062 132.63351563 58 132 C55.73030256 129.73030256 54.02604513 129.00868171 51 128 C49.68 128 48.36 128 47 128 Z M178 128 C178 130.31 178 132.62 178 135 C178.99 134.01 179.98 133.02 181 132 C180.34 130.68 179.68 129.36 179 128 C178.67 128 178.34 128 178 128 Z M119 131 C120.58962659 135.03520597 122.28232318 139.01811282 124 143 C124.99 143 125.98 143 127 143 C126.83242187 143.68707031 126.66484375 144.37414062 126.4921875 145.08203125 C126.28851563 145.98308594 126.08484375 146.88414062 125.875 147.8125 C125.56175781 149.15248047 125.56175781 149.15248047 125.2421875 150.51953125 C124.71119478 153.25246634 124.71119478 153.25246634 127 156 C130.60992379 155.34414811 130.60992379 155.34414811 134 154 C133.89300781 154.61488281 133.78601563 155.22976562 133.67578125 155.86328125 C133.49595703 157.07564453 133.49595703 157.07564453 133.3125 158.3125 C133.18488281 159.11300781 133.05726563 159.91351563 132.92578125 160.73828125 C132.78403502 163.07496987 132.78403502 163.07496987 134.36328125 164.79296875 C135.91256117 166.18547706 135.91256117 166.18547706 137.875 166 C140.87980917 164.58597216 142.76704502 162.41903456 145 160 C144.40316406 159.525625 143.80632812 159.05125 143.19140625 158.5625 C140.18313708 155.04480914 139.23772988 151.38783777 137.9375 147 C135.9754524 139.99363683 135.9754524 139.99363683 132 134 C131.01 134.495 131.01 134.495 130 135 C130.99 138.96 131.98 142.92 133 147 C131.7315625 144.710625 131.7315625 144.710625 130.4375 142.375 C127.52558694 137.49407906 124.54257269 134.384662 120 131 C119.67 131 119.34 131 119 131 Z M62.078125 134.66796875 C59.0614656 141.1931342 60.63798693 148.75236263 63 155.25 C63.64732437 156.84133907 64.30686674 158.42807278 65 160 C66.64767247 159.71890887 68.29313145 159.42481474 69.9375 159.125 C71.31228516 158.88136719 71.31228516 158.88136719 72.71484375 158.6328125 C73.46894531 158.42398438 74.22304687 158.21515625 75 158 C75.33 157.34 75.66 156.68 76 156 C78.31 156 80.62 156 83 156 C83.33 154.35 83.66 152.7 84 151 C81.41806023 150.32749476 78.83467929 149.66182099 76.25 149 C75.15558594 148.71382812 75.15558594 148.71382812 74.0390625 148.421875 C70.55428354 147.53484036 67.61876278 147 64 147 C66.9946881 143.8319859 70.43680993 141.38874542 73.94140625 138.81640625 C76.02407813 136.97875459 76.96387548 135.54830626 78 133 C75.73020335 132.89205723 73.45894804 132.81443824 71.1875 132.75 C69.92292969 132.70359375 68.65835938 132.6571875 67.35546875 132.609375 C64.00393351 132.6800069 64.00393351 132.6800069 62.078125 134.66796875 Z M13.9375 138.9375 C11.1476679 139.94658821 9.29117343 140.12197287 6.375 140.25 C4.06330117 140.41226955 4.06330117 140.41226955 2 141 C-0.64897392 144.27226191 -1.06137882 146.09654679 -0.77734375 150.27734375 C0.0770178 154.36883398 1.50569458 157.31004317 3.5625 160.9375 C4.20316406 162.08089844 4.84382813 163.22429687 5.50390625 164.40234375 C5.99761719 165.25957031 6.49132812 166.11679688 7 167 C9.3448785 163.48268225 10.57640922 159.83937932 11.9375 155.875 C12.20256348 155.11324463 12.46762695 154.35148926 12.74072266 153.56665039 C14.53647415 148.39186191 16.29626658 143.20585212 18 138 C15.92586031 137.86206569 15.92586031 137.86206569 13.9375 138.9375 Z M23 139 C14.07911753 155.95148202 14.07911753 155.95148202 12 174 C14.09324514 176.92431021 16.43698131 179.4827495 19 182 C21.29007686 180.72156117 21.29007686 180.72156117 23 178 C23.38126891 173.5745573 23.29114538 168.97469294 20.8046875 165.171875 C19.33635497 163.64728972 19.33635497 163.64728972 17 162 C22.75 164.75 22.75 164.75 25 167 C28.88734369 163.79181756 28.88734369 163.79181756 30.3125 159.1875 C30.209375 158.465625 30.10625 157.74375 30 157 C28.02 157.66 26.04 158.32 24 159 C24 152.4 24 145.8 24 139 C23.67 139 23.34 139 23 139 Z M32 156 C32.309375 156.845625 32.61875 157.69125 32.9375 158.5625 C33 162 33 162 31.47265625 163.60546875 C30.82167969 164.14816406 30.17070313 164.69085938 29.5 165.25 C27.46940099 166.93915881 27.46940099 166.93915881 26 169 C25.88414076 171.66047145 26.3017966 173.94354818 26.796875 176.5546875 C27.13454512 180.61971625 25.31835171 182.76835823 23 186 C24.47687532 187.16956591 25.95656293 188.33558146 27.4375 189.5 C28.26121094 190.1496875 29.08492187 190.799375 29.93359375 191.46875 C31.70525529 193.0992288 31.70525529 193.0992288 33 193 C33.07476562 191.76507813 33.14953125 190.53015625 33.2265625 189.2578125 C34.02830805 178.32235084 35.9470552 168.71331853 39.7578125 158.4296875 C41.11351301 155.29454149 41.11351301 155.29454149 41 153 C37.69644454 153 34.97891751 154.67603666 32 156 Z M88 153 C85.74114676 156.25397508 85.74114676 156.25397508 85 160 C89.29 159.34 93.58 158.68 98 158 C94.43688534 155.327664 92.15414253 154.22736029 88 153 Z M49 157 C47.93467075 159.53391872 46.89805713 162.07405843 45.875 164.625 C45.57207031 165.33785156 45.26914063 166.05070313 44.95703125 166.78515625 C43.5254429 170.41406625 42.88325472 172.38726858 43.62890625 176.30078125 C47.34217822 183.61095484 53.83580879 187.47476306 61 191 C61.33513594 188.20980136 61.33513594 188.20980136 61 185 C60.319375 184.236875 59.63875 183.47375 58.9375 182.6875 C57 180 57 180 57.16796875 177.96875 C57.31878906 177.2159375 57.46960938 176.463125 57.625 175.6875 C58.12611249 172.75866777 58.26772693 171.48597297 56.81640625 168.8515625 C55.73777562 167.50133423 54.63353863 166.17113869 53.50390625 164.86328125 C51.55092242 162.44361038 50.74832169 159.99328675 50 157 C49.67 157 49.34 157 49 157 Z M75 160 C73.00039988 160.039992 70.99952758 160.04346799 69 160 C68.02138736 162.1050479 68.02138736 162.1050479 68 165 C69.08966752 167.12267233 70.37336183 169.02659496 71.71875 170.99609375 C73.33890796 173.53006031 74.20553418 176.11103339 75 179 C75.66 179 76.32 179 77 179 C77.09796875 178.41992188 77.1959375 177.83984375 77.296875 177.2421875 C78.31621252 171.91702769 79.86273417 168.49674769 83 164 C83 162.68 83 161.36 83 160 C78.89776415 158.98459888 78.89776415 158.98459888 75 160 Z M156.1875 165.5625 C154 167 154 167 151.875 166.75 C150 166 150 166 148 165 C147.34 167.31 146.68 169.62 146 172 C150.64897096 172.91651943 150.64897096 172.91651943 155.3125 172.5 C157.9461593 170.15896951 158.25553194 167.35010626 159 164 C157.72739771 163.89117673 157.72739771 163.89117673 156.1875 165.5625 Z M60 174 C58.96986723 175.64821244 57.96885372 177.31503702 57 179 C58.485 179.99 58.485 179.99 60 181 C61.7109375 182.38671875 61.7109375 182.38671875 63 184 C62.80775677 185.95447289 62.61544789 187.90893961 62.421875 189.86328125 C63.61963745 194.2901465 68.48733785 196.26172066 72.1796875 198.53125 C74.76567151 200.15396472 74.76567151 200.15396472 77 200 C74.21705702 188.95873029 69.58872156 181.54523202 61 174 C60.67 174 60.34 174 60 174 Z " fill="#000000" transform="translate(45,18)"/>
<path d="M0 0 C0.4125 0.39832031 0.825 0.79664062 1.25 1.20703125 C6.87769874 6.36994237 12.45365665 8.82088385 20 10 C19.67 10.66 19.34 11.32 19 12 C16.03 12 13.06 12 10 12 C9.773125 12.9075 9.54625 13.815 9.3125 14.75 C7.81872023 18.44888324 6.24599423 19.77905658 3 22 C3.2165625 20.14375 3.2165625 20.14375 3.4375 18.25 C3.52257812 17.51652344 3.60765625 16.78304687 3.6953125 16.02734375 C4 14 4 14 4.8125 11.8125 C5.2379061 9.73089882 5.2379061 9.73089882 3.125 7.5625 C2.42375 6.716875 1.7225 5.87125 1 5 C0.25 2.1875 0.25 2.1875 0 0 Z " fill="#000000" transform="translate(151,105)"/>
<path d="M0 0 C3.84108078 0.26798238 5.736021 0.794683 8.8125 3.1875 C11.205317 6.263979 11.73201762 8.15891922 12 12 C11.29875 11.401875 10.5975 10.80375 9.875 10.1875 C7.07928131 7.88490993 7.07928131 7.88490993 3.75 6.5625 C1 5 1 5 0.125 2.3125 C0.08375 1.549375 0.0425 0.78625 0 0 Z " fill="#000000" transform="translate(210,120)"/>
<path d="" fill="#000000" transform="translate(0,0)"/>
<path d="" fill="#000000" transform="translate(0,0)"/>
</svg>
