<?xml version="1.0" encoding="UTF-8"?>
<svg version="1.1" xmlns="http://www.w3.org/2000/svg" width="256" height="256">
<path d="M0 0 C18.08783487 15.04470197 31.28836103 34.89924356 34.3125 58.75 C35.43702166 76.85382095 33.41643311 92.54213377 25.2890625 108.796875 C24.04168944 111.66371279 24.04168944 111.66371279 24.98828125 114.28125 C25.42527344 115.0959375 25.86226562 115.910625 26.3125 116.75 C30.74948608 126.64682877 34.15662997 134.57098711 30.5234375 145.25390625 C27.78492162 150.89878254 23.54848405 155.19453283 18.4375 158.75 C10.13223955 161.40768334 0.2949685 161.74123425 -7.6875 157.75 C-7.64149658 158.8644751 -7.59549316 159.9789502 -7.5480957 161.12719727 C-7.38080981 165.28455952 -7.23499174 169.44245151 -7.09545898 173.60083008 C-7.03225332 175.39629121 -6.96332231 177.19156072 -6.88842773 178.98657227 C-6.78142828 181.57538457 -6.69542932 184.16420036 -6.61328125 186.75390625 C-6.5572448 187.94651817 -6.5572448 187.94651817 -6.50007629 189.16322327 C-6.35846797 194.48042038 -7.11073617 198.06038702 -9.6875 202.75 C-13.27418313 205.14112209 -14.85146569 204.98381027 -19.10546875 204.9453125 C-20.35908203 204.93886719 -21.61269531 204.93242187 -22.90429688 204.92578125 C-24.86979492 204.90064453 -24.86979492 204.90064453 -26.875 204.875 C-28.21027987 204.86496639 -29.54556689 204.8558412 -30.88085938 204.84765625 C-34.14981645 204.82405367 -37.41868071 204.78818219 -40.6875 204.75 C-40.6875 196.17 -40.6875 187.59 -40.6875 178.75 C-43.6575 178.75 -46.6275 178.75 -49.6875 178.75 C-49.6875 187.33 -49.6875 195.91 -49.6875 204.75 C-53.6475 204.75 -57.6075 204.75 -61.6875 204.75 C-61.6875 196.17 -61.6875 187.59 -61.6875 178.75 C-64.6575 178.75 -67.6275 178.75 -70.6875 178.75 C-70.6875 187.33 -70.6875 195.91 -70.6875 204.75 C-74.6475 204.75 -78.6075 204.75 -82.6875 204.75 C-83.1825 192.375 -83.1825 192.375 -83.6875 179.75 C-86.6575 179.42 -89.6275 179.09 -92.6875 178.75 C-92.6875 187.33 -92.6875 195.91 -92.6875 204.75 C-97.08398882 204.8578893 -101.47783249 204.93727932 -105.875 205 C-107.12087891 205.03351563 -108.36675781 205.06703125 -109.65039062 205.1015625 C-110.85244141 205.11445313 -112.05449219 205.12734375 -113.29296875 205.140625 C-114.39793701 205.16157227 -115.50290527 205.18251953 -116.64135742 205.20410156 C-120.38030284 204.6467209 -122.00416801 203.3560942 -124.6875 200.75 C-126.37776137 197.36947726 -125.93194959 193.52739858 -126.00390625 189.8046875 C-126.02468735 188.9196756 -126.04546844 188.0346637 -126.06687927 187.12283325 C-126.13236598 184.29030259 -126.19125562 181.45767775 -126.25 178.625 C-126.29318606 176.70702143 -126.33680037 174.78905246 -126.38085938 172.87109375 C-126.48804647 168.16415949 -126.5893164 163.45713033 -126.6875 158.75 C-128.32211182 158.98505249 -128.32211182 158.98505249 -129.98974609 159.22485352 C-131.43841281 159.42250561 -132.88714697 159.61966376 -134.3359375 159.81640625 C-135.05193115 159.92069946 -135.7679248 160.02499268 -136.50561523 160.13244629 C-144.07470934 161.13978137 -149.39576781 159.7123788 -155.9375 155.8125 C-161.21632213 150.80516015 -164.96515315 142.99843434 -165.375 135.75 C-164.95603456 129.11100924 -162.02753153 122.40164155 -158.4609375 116.8359375 C-156.40644207 111.29502557 -159.41253757 105.47946217 -161.625 100.375 C-170.33302721 79.24640017 -168.87440549 57.09279767 -160.61767578 35.97558594 C-150.90762866 12.74283278 -133.3469289 -2.05999723 -110.6875 -12.25 C-109.33785156 -12.86681641 -109.33785156 -12.86681641 -107.9609375 -13.49609375 C-73.7063659 -27.46978407 -29.68366303 -21.96805387 0 0 Z M-129.98828125 75.64453125 C-134.41225285 81.12618802 -136.06250847 87.40215484 -135.75 94.375 C-134.78867597 100.91760335 -132.61375448 106.27233355 -127.49609375 110.60546875 C-120.93808086 115.15394227 -115.60851021 116.41938114 -107.6875 115.75 C-99.00793336 114.16701876 -92.22472261 110.33418822 -86.8125 103.3125 C-82.34714175 96.38817757 -82.08878868 89.66187061 -83.6875 81.75 C-86.0574447 75.19274369 -90.9012287 71.39901771 -96.75 67.9375 C-108.31669362 63.48483476 -121.29822536 67.37752067 -129.98828125 75.64453125 Z M-44.625 74.625 C-49.60848074 80.90049427 -50.46377684 86.89958745 -49.6875 94.75 C-47.64610575 101.71475684 -43.31891156 107.48735126 -37.1484375 111.33203125 C-28.92857858 115.5389502 -20.68954754 117.50010886 -11.5625 114.8125 C-5.49817596 112.22406901 -1.22120896 106.6257043 1.8125 100.9375 C3.1242253 92.57525123 3.2044896 85.45023808 -1.07421875 77.94140625 C-5.30721411 72.19150214 -11.68808048 68.17102309 -18.6875 66.75 C-29.12875251 65.67672404 -37.29019087 66.76304852 -44.625 74.625 Z M-70.65869141 115.90454102 C-74.15861318 120.81327607 -76.51486917 126.24156446 -79.0625 131.6875 C-79.63355469 132.85474609 -80.20460938 134.02199219 -80.79296875 135.22460938 C-81.32277344 136.35576172 -81.85257812 137.48691406 -82.3984375 138.65234375 C-82.88618652 139.67835693 -83.37393555 140.70437012 -83.87646484 141.76147461 C-84.87612025 145.44503326 -84.19058729 147.30625431 -82.6875 150.75 C-77.73321393 151.75555918 -77.73321393 151.75555918 -72.875 150.75 C-68.07096609 149.24285211 -62.26345298 149.46202351 -57.6875 151.75 C-53.55685374 152.12615126 -53.55685374 152.12615126 -49.8125 150.625 C-48.16704072 147.88256787 -48.45219879 145.92161515 -48.6875 142.75 C-49.81747507 139.54862645 -49.81747507 139.54862645 -51.4609375 136.328125 C-51.88664536 135.44903473 -51.88664536 135.44903473 -52.32095337 134.55218506 C-52.91907911 133.32262575 -53.52280622 132.09577698 -54.13183594 130.87158203 C-55.06395344 128.99707711 -55.9786044 127.114821 -56.890625 125.23046875 C-59.67075782 119.06695585 -59.67075782 119.06695585 -63.6875 113.75 C-67.18651695 113.10544425 -68.21777306 113.23658159 -70.65869141 115.90454102 Z " fill="#000000" transform="translate(194.6875,36.25)"/>
</svg>
